<?xml version="1.0" standalone="no"?>
<!DOCTYPE svg PUBLIC "-//W3C//DTD SVG 20010904//EN"
 "http://www.w3.org/TR/2001/REC-SVG-20010904/DTD/svg10.dtd">
<svg version="1.0" xmlns="http://www.w3.org/2000/svg"
 width="225.000000pt" height="225.000000pt" viewBox="0 0 225.000000 225.000000"
 preserveAspectRatio="xMidYMid meet">

<g transform="translate(0.000000,225.000000) scale(0.100000,-0.100000)"
fill="#000000" stroke="none">
<path d="M1036 1830 c-70 -22 -84 -68 -36 -118 26 -27 30 -39 30 -86 0 -44 -5
-60 -26 -85 -14 -17 -23 -34 -20 -39 6 -11 106 -14 169 -6 55 7 61 23 20 59
l-28 24 35 0 c19 0 60 -8 90 -19 69 -24 80 -25 80 -2 0 23 -57 47 -147 64
l-63 11 0 37 c0 24 7 43 19 54 67 61 -22 138 -123 106z"/>
<path d="M1488 1773 c-13 -14 -17 -34 -16 -75 2 -63 -12 -88 -86 -156 -41 -38
-51 -42 -96 -42 -42 0 -50 -3 -50 -19 0 -11 9 -21 23 -25 12 -3 35 -24 50 -47
18 -26 44 -48 72 -60 31 -14 45 -26 45 -39 0 -13 7 -20 20 -20 18 0 20 7 20
61 0 81 14 74 65 -29 36 -76 55 -96 70 -73 8 14 -28 103 -64 156 -17 25 -31
48 -31 51 0 3 10 19 23 35 29 40 66 59 116 59 31 0 44 6 61 27 25 32 22 66
-11 120 -46 74 -172 120 -211 76z"/>
<path d="M612 1620 c-38 -23 -77 -99 -67 -130 8 -26 41 -43 68 -36 44 11 127
-61 132 -114 4 -56 19 -55 76 5 30 31 56 62 58 68 2 7 8 15 14 18 5 4 7 15 3
24 -5 13 -13 16 -37 11 -22 -4 -29 -2 -27 7 6 18 77 63 122 78 38 13 53 30 42
48 -10 16 -92 -17 -162 -65 l-63 -43 -25 30 c-16 19 -26 43 -26 63 0 58 -46
74 -108 36z"/>
<path d="M960 1447 c-87 -44 -35 -183 61 -162 32 7 69 48 69 77 0 35 -29 76
-61 87 -39 14 -38 14 -69 -2z"/>
<path d="M668 1337 c-9 -19 -24 -70 -34 -115 l-19 -82 -37 0 c-24 0 -46 8 -66
25 -37 31 -47 31 -77 0 -20 -19 -25 -34 -25 -75 0 -75 28 -120 74 -120 7 0 27
14 44 30 28 26 39 30 91 30 44 0 65 -5 85 -21 39 -31 50 -21 48 42 l-3 54 21
-33 c52 -83 160 -57 160 38 0 39 -26 72 -66 84 -32 10 -72 -10 -93 -45 l-19
-31 -7 41 c-8 46 -19 50 -52 19 l-23 -21 0 31 c0 17 11 61 25 98 14 36 22 70
19 75 -11 18 -31 8 -46 -24z"/>
<path d="M1716 1249 c-27 -23 -48 -32 -88 -36 -48 -5 -57 -2 -85 21 -50 42
-53 37 -50 -74 3 -118 14 -139 53 -97 13 15 27 27 31 27 11 0 -7 -81 -31 -140
-21 -52 -22 -60 -9 -72 12 -10 18 -9 29 7 17 23 54 138 54 167 0 32 19 58 42
58 12 0 39 -12 60 -26 67 -47 108 -14 108 87 0 42 -5 55 -29 80 -16 16 -34 29
-40 29 -6 0 -26 -14 -45 -31z"/>
<path d="M1054 1234 c-114 -56 -32 -246 100 -230 114 14 127 162 20 223 -46
27 -77 28 -120 7z"/>
<path d="M1342 1233 c-22 -9 -44 -63 -37 -93 8 -37 34 -60 77 -66 77 -13 123
82 68 141 -23 24 -72 33 -108 18z"/>
<path d="M649 988 c-3 -29 4 -46 48 -122 l45 -79 -45 -45 c-41 -40 -51 -45
-97 -48 -28 -1 -57 -7 -64 -14 -61 -50 18 -187 126 -219 31 -10 47 -10 69 -1
33 14 39 29 37 91 -2 41 3 54 40 103 53 70 78 87 144 95 38 4 53 10 53 21 0 9
-11 16 -25 18 -17 2 -32 15 -45 40 -13 24 -37 46 -69 64 -28 14 -53 36 -58 47
-4 12 -15 21 -24 21 -14 0 -16 -7 -10 -47 9 -72 -6 -85 -37 -32 -14 24 -33 61
-42 82 -15 35 -44 51 -46 25z"/>
<path d="M1114 936 c-35 -15 -44 -32 -44 -81 0 -25 8 -40 31 -59 17 -14 39
-26 49 -26 67 0 111 73 80 131 -10 18 -60 49 -77 49 -4 -1 -22 -7 -39 -14z"/>
<path d="M1419 902 c-47 -49 -79 -94 -79 -112 0 -5 19 -10 43 -10 l42 -1 -25
-21 c-14 -11 -53 -34 -88 -51 -45 -21 -62 -34 -60 -46 2 -10 12 -15 23 -13 32
5 123 51 156 79 l30 26 30 -29 c20 -20 29 -37 29 -61 0 -48 35 -69 82 -50 52
23 98 84 98 132 0 25 -31 45 -69 45 -26 0 -50 9 -79 30 -42 31 -55 55 -56 100
-1 39 -27 33 -77 -18z"/>
<path d="M1087 749 c-9 -5 -22 -7 -27 -4 -6 3 -13 -1 -17 -11 -4 -12 3 -24 23
-41 l29 -23 -28 0 c-15 0 -53 9 -84 20 -69 24 -93 25 -93 5 0 -20 70 -50 146
-64 32 -6 59 -11 61 -11 2 0 3 -17 3 -39 0 -23 -8 -48 -20 -64 -50 -63 2 -117
101 -104 90 12 113 62 59 124 -25 28 -30 42 -30 88 0 43 5 59 26 84 14 17 23
34 21 38 -8 12 -150 14 -170 2z"/>
</g>
</svg>
