<?xml version="1.0" standalone="no"?>
<!DOCTYPE svg PUBLIC "-//W3C//DTD SVG 20010904//EN"
 "http://www.w3.org/TR/2001/REC-SVG-20010904/DTD/svg10.dtd">
<svg version="1.0" xmlns="http://www.w3.org/2000/svg"
 width="1160.000000pt" height="773.000000pt" viewBox="0 0 1160.000000 773.000000"
 preserveAspectRatio="xMidYMid meet">

<g transform="translate(0.000000,773.000000) scale(0.100000,-0.100000)"
fill="#000000" stroke="none">
<path d="M4285 6815 c-5 -2 -23 -6 -38 -9 -22 -5 -27 -11 -22 -26 4 -12 2 -20
-4 -20 -6 0 -11 -7 -11 -16 0 -13 -3 -12 -17 4 -23 26 -70 37 -153 37 -51 0
-65 -3 -65 -15 0 -12 18 -16 85 -20 80 -5 110 -12 110 -28 0 -9 -56 -9 -66 1
-10 10 -82 9 -88 -2 -4 -5 -2 -21 4 -35 11 -29 4 -32 -24 -11 -11 8 -29 15
-40 15 -12 0 -30 7 -40 15 -22 17 -76 20 -76 5 0 -5 8 -13 17 -19 35 -19 -16
-32 -64 -16 -16 5 -23 2 -28 -14 -8 -27 -22 -19 -30 19 -4 17 -9 30 -12 30
-14 0 -129 -32 -135 -38 -11 -10 3 -27 37 -45 l30 -16 -32 -1 c-22 0 -37 7
-51 25 -25 32 -28 31 -41 -6 -9 -27 -14 -30 -43 -27 -24 2 -32 -1 -30 -11 2
-11 0 -12 -10 -4 -18 16 -118 -44 -118 -71 0 -17 5 -18 51 -12 l51 7 -27 -36
c-25 -32 -31 -35 -82 -35 -32 0 -52 -4 -48 -10 3 -5 -4 -12 -17 -14 -13 -3
-41 -9 -62 -13 -57 -12 -55 -29 4 -43 30 -7 47 -16 43 -22 -4 -8 14 -9 56 -4
57 7 62 6 59 -11 -3 -15 -12 -18 -65 -15 -66 4 -95 -4 -72 -19 8 -5 28 -9 44
-9 28 -1 29 -2 12 -14 -32 -24 -20 -26 175 -23 68 0 138 -22 148 -47 4 -12 22
-31 39 -44 20 -14 31 -31 31 -47 0 -13 7 -31 16 -40 9 -8 13 -23 10 -31 -3 -9
-3 -21 1 -27 11 -18 12 -56 2 -62 -17 -11 -9 -25 16 -25 13 0 28 8 34 18 9 16
11 16 24 -2 9 -12 19 -16 27 -11 8 5 11 3 8 -5 -2 -8 4 -22 14 -32 28 -28 21
-38 -17 -22 -37 15 -75 19 -75 6 0 -15 58 -42 90 -42 28 0 31 -3 28 -27 -2
-21 -9 -29 -28 -31 -33 -5 -51 -22 -22 -22 12 0 22 -4 22 -10 0 -5 -4 -10 -8
-10 -5 0 -16 -6 -26 -13 -16 -12 -14 -13 17 -9 19 2 38 -1 41 -7 5 -7 -2 -11
-18 -11 -14 0 -26 -4 -26 -9 0 -5 -11 -11 -25 -13 -41 -5 -24 -23 20 -21 l40
3 -38 -21 c-31 -16 -36 -23 -27 -34 6 -8 18 -11 27 -8 13 5 13 3 4 -15 -6 -11
-8 -28 -4 -37 5 -16 8 -15 23 5 14 19 18 20 29 6 10 -12 11 -23 3 -46 -8 -23
-7 -36 4 -60 l15 -30 48 25 c26 13 89 36 139 51 50 15 89 31 86 36 -3 4 -1 8
4 8 5 0 8 10 8 22 -1 17 7 25 31 33 18 6 39 20 48 30 13 18 14 18 15 3 0 -10
7 -18 15 -18 26 0 85 33 90 51 4 10 19 29 36 43 16 14 29 31 29 38 0 10 2 10
9 -1 7 -11 15 -11 39 -3 17 6 33 8 36 5 7 -7 107 26 126 42 8 7 32 20 53 30
20 9 37 21 37 26 0 12 -66 22 -98 15 -15 -4 -40 -10 -57 -13 -27 -5 -29 -4
-16 11 12 14 11 16 -3 16 -9 0 -16 4 -16 8 0 15 22 31 36 25 7 -2 21 0 31 6
16 9 14 11 -14 17 -46 9 -41 26 5 18 49 -9 61 -16 76 -45 9 -18 21 -24 50 -26
30 -2 37 1 32 13 -3 9 -6 27 -6 40 0 15 -6 24 -15 24 -8 0 -15 7 -15 15 0 15
-41 31 -70 27 -8 -1 -22 14 -31 33 -16 35 -16 35 8 35 19 0 24 4 19 15 -3 10
-1 15 7 14 6 -1 20 1 30 6 11 5 23 3 30 -5 10 -10 8 -12 -6 -6 -13 4 -17 2
-15 -6 3 -7 24 -14 49 -16 l44 -2 -27 21 c-48 36 -29 70 27 49 18 -7 32 -7 38
-1 6 6 1 12 -17 17 -14 3 -26 10 -26 14 0 5 -10 10 -22 12 -13 2 -23 10 -23
18 0 16 25 18 63 6 21 -7 23 -5 20 21 -2 21 -9 29 -28 31 -31 5 -50 20 -50 40
0 12 10 14 60 9 69 -8 76 2 34 48 -19 21 -32 26 -55 23 -16 -3 -29 -4 -29 -3
0 25 28 66 51 75 19 8 28 18 25 27 -3 7 1 16 9 18 51 16 51 17 30 25 -11 4
-31 3 -44 -2 -13 -5 -26 -6 -30 -3 -11 12 25 25 71 25 55 0 71 15 27 24 -43 8
-28 22 33 30 49 7 118 45 118 65 0 11 -71 31 -113 31 -25 0 -40 -6 -50 -20
-11 -16 -23 -20 -50 -17 -37 4 -51 -2 -118 -53 l-34 -25 25 34 c14 18 29 39
34 46 25 34 -28 62 -55 29 -20 -24 -99 -52 -99 -35 0 5 10 13 23 17 l22 8 -25
7 c-14 4 -41 7 -60 8 -32 1 -33 2 -18 17 13 13 26 15 65 9 26 -5 55 -7 63 -6
29 4 100 34 100 42 0 11 -39 22 -82 22 -21 0 -35 4 -32 9 3 5 -4 12 -16 15
-13 3 -19 11 -16 19 6 17 -49 20 -59 4 -4 -6 -12 -4 -21 5 -21 21 -74 19 -90
-2 -13 -17 -13 -17 -14 0 0 14 -9 17 -57 16 -32 0 -62 -2 -68 -4z"/>
<path d="M3237 6769 c-11 -6 -34 -8 -54 -4 -24 4 -33 3 -28 -4 3 -6 -1 -11 -9
-11 -8 0 -18 5 -21 10 -8 13 -95 13 -95 1 0 -6 -16 -7 -37 -4 -28 5 -34 3 -28
-7 6 -10 0 -12 -28 -7 -21 3 -37 2 -37 -4 0 -5 -9 -9 -19 -9 -11 0 -23 -4 -26
-10 -4 -6 5 -10 19 -10 14 0 26 -4 26 -10 0 -5 9 -10 19 -10 11 0 23 -4 26
-10 9 -14 -7 -12 -49 5 -21 9 -36 11 -36 5 0 -18 -33 -11 -57 12 l-23 21 0
-26 c0 -29 -8 -31 -65 -18 -17 4 -51 1 -80 -7 -57 -16 -81 -32 -47 -32 12 0
22 -4 22 -9 0 -5 19 -7 43 -5 33 3 36 2 12 -4 -17 -4 -30 -14 -30 -22 0 -19
56 -15 97 6 33 17 39 17 36 2 -2 -9 7 -12 26 -10 18 3 26 0 22 -7 -4 -6 -15
-11 -24 -11 -9 -1 -28 -7 -42 -15 -24 -14 -24 -14 23 -15 27 0 58 7 72 16 22
15 23 14 18 -5 -5 -18 -1 -21 30 -21 20 0 39 -5 43 -11 5 -8 -5 -9 -34 -4 -32
5 -42 3 -50 -11 -6 -11 -11 -13 -16 -5 -4 6 -29 11 -57 11 -40 0 -49 -3 -49
-18 0 -10 12 -22 29 -29 16 -6 34 -20 40 -32 11 -20 9 -21 -29 -21 -22 0 -40
-4 -40 -8 0 -14 36 -43 43 -35 4 3 15 -1 25 -11 11 -9 26 -14 36 -10 19 7 20
0 5 -27 -8 -16 -16 -19 -42 -14 -18 4 -39 13 -48 21 -22 20 -68 18 -75 -3 -3
-10 -10 -27 -16 -37 -13 -25 16 -49 46 -40 28 8 27 8 59 -1 18 -5 38 -2 59 8
31 15 61 9 79 -17 4 -5 25 -2 48 5 40 14 41 15 26 37 -12 16 -26 22 -55 22
-21 0 -41 4 -44 9 -10 15 5 20 31 10 35 -13 93 -1 86 17 -4 10 4 14 32 14 31
0 36 3 30 18 -4 9 -10 25 -12 35 -4 11 -16 17 -37 17 -29 1 -30 1 -12 15 13
10 43 15 83 15 59 0 80 10 51 24 -7 3 6 4 30 2 41 -4 44 -2 54 25 7 20 16 29
28 27 9 -2 23 2 31 8 8 7 41 26 74 44 33 17 67 40 75 49 8 10 32 28 53 40 37
22 41 47 7 38 -12 -3 -20 2 -23 13 -5 21 -56 30 -103 20 -25 -6 -31 -5 -27 6
3 10 -3 14 -20 14 -14 0 -31 2 -39 5 -7 2 -21 0 -31 -6z"/>
<path d="M3946 6732 c-7 -11 41 -38 50 -29 9 9 -15 37 -32 37 -7 0 -15 -4 -18
-8z"/>
<path d="M3770 6710 c0 -7 24 -20 36 -20 13 0 1 19 -16 23 -11 3 -20 2 -20 -3z"/>
<path d="M2510 6605 c0 -8 -4 -15 -10 -15 -5 0 -10 -25 -10 -55 0 -45 -4 -56
-22 -66 -19 -10 -19 -12 -5 -21 11 -5 23 -4 36 4 15 9 23 10 32 1 8 -8 6 -13
-10 -18 -27 -8 -26 -16 3 -37 30 -22 101 -34 110 -20 4 6 14 8 22 5 16 -6 74
42 74 63 0 6 -7 14 -15 18 -8 3 -15 16 -15 30 0 27 -16 44 -22 24 -3 -8 -12
-4 -26 10 -12 12 -27 22 -34 22 -6 0 -26 16 -44 35 -33 36 -64 46 -64 20z"/>
<path d="M8343 6598 c-18 -6 -33 -16 -33 -23 0 -6 -9 -20 -20 -30 -22 -20 -18
-32 14 -45 13 -5 28 -3 42 5 12 8 39 15 60 17 50 4 58 31 17 64 -31 26 -34 26
-80 12z"/>
<path d="M6024 6526 c-3 -9 -17 -16 -31 -16 -22 0 -24 -2 -13 -15 7 -8 26 -15
42 -15 17 0 27 -4 23 -10 -4 -6 8 -10 28 -10 19 0 47 -6 62 -14 29 -15 57 -10
97 18 19 13 18 14 -11 21 -17 4 -36 16 -42 26 -9 17 -13 18 -25 8 -13 -10 -17
-10 -24 0 -6 11 -10 9 -18 -4 -9 -17 -12 -17 -46 4 -31 20 -37 21 -42 7z"/>
<path d="M8365 6494 c-38 -19 -53 -34 -36 -34 7 0 19 -6 27 -14 15 -16 115
-32 139 -22 24 9 -11 75 -36 69 -11 -3 -19 0 -19 6 0 16 -40 13 -75 -5z"/>
<path d="M5800 6489 c0 -5 -9 -9 -19 -9 -11 0 -23 -5 -26 -10 -8 -14 33 -70
51 -70 8 0 14 -4 14 -10 0 -14 36 -12 52 3 11 11 28 13 63 8 16 -3 -55 -31
-76 -31 -11 0 -19 -4 -19 -10 0 -5 10 -10 21 -10 18 0 19 -3 9 -15 -15 -19 -3
-38 21 -32 12 3 19 0 19 -9 0 -30 37 -10 68 36 17 28 32 55 32 61 0 8 14 10
41 6 51 -7 48 10 -6 31 -22 9 -44 21 -50 27 -14 16 -58 45 -68 45 -5 0 -7 -13
-5 -30 5 -36 2 -37 -29 -8 -18 17 -26 19 -32 10 -4 -7 -15 -10 -25 -6 -12 5
-14 9 -6 14 8 5 4 9 -9 13 -12 3 -21 1 -21 -4z"/>
<path d="M8263 6486 c5 -15 37 -20 49 -8 6 6 -1 11 -22 14 -19 3 -29 1 -27 -6z"/>
<path d="M2182 6425 c-17 -37 -15 -47 11 -44 12 1 29 0 37 -3 46 -16 87 -28
93 -28 4 0 7 11 7 25 0 28 -42 55 -84 55 -14 0 -28 5 -31 10 -10 17 -21 11
-33 -15z"/>
<path d="M8569 6433 c-9 -9 -26 -24 -38 -34 -34 -30 -25 -39 32 -33 55 6 117
22 117 31 0 2 -10 13 -22 23 -17 13 -28 15 -40 9 -14 -7 -18 -6 -18 6 0 19
-10 18 -31 -2z"/>
<path d="M2380 6425 c0 -7 8 -23 18 -35 15 -18 21 -20 45 -11 38 15 30 33 -21
48 -34 10 -42 9 -42 -2z"/>
<path d="M1938 6404 c-44 -23 -35 -37 20 -29 56 8 59 10 42 30 -15 19 -27 18
-62 -1z"/>
<path d="M6087 6373 c-4 -3 -7 -14 -7 -23 0 -22 54 -34 83 -18 22 11 22 11 -6
21 -15 5 -27 13 -27 18 0 10 -33 12 -43 2z"/>
<path d="M8730 6370 c0 -5 7 -10 15 -10 8 0 15 5 15 10 0 6 -7 10 -15 10 -8 0
-15 -4 -15 -10z"/>
<path d="M1857 6363 c-3 -5 -2 -15 2 -22 7 -10 10 -10 16 -1 4 6 3 16 -3 22
-5 5 -12 6 -15 1z"/>
<path d="M2450 6351 c0 -11 48 -24 60 -16 21 13 8 25 -25 25 -19 0 -35 -4 -35
-9z"/>
<path d="M2245 6330 c-3 -5 1 -10 9 -10 9 0 16 5 16 10 0 6 -4 10 -9 10 -6 0
-13 -4 -16 -10z"/>
<path d="M3170 6330 c0 -5 7 -10 15 -10 8 0 15 5 15 10 0 6 -7 10 -15 10 -8 0
-15 -4 -15 -10z"/>
<path d="M8583 6318 c-34 -20 -42 -43 -20 -51 6 -3 -8 -6 -32 -6 -42 -1 -43
-2 -28 -19 10 -10 17 -29 17 -42 0 -19 -2 -20 -15 -10 -8 7 -15 21 -15 32 0
17 -4 19 -22 13 -45 -14 -78 -17 -78 -8 0 6 -17 9 -37 7 -21 -1 -37 -7 -36
-12 1 -6 -26 -13 -60 -17 -62 -7 -115 -29 -130 -52 -4 -7 -17 -13 -29 -13 -17
0 -19 -5 -16 -27 3 -16 9 -36 13 -46 5 -13 4 -16 -9 -11 -9 3 -14 10 -11 14 6
9 -102 6 -133 -4 -35 -11 -26 -44 24 -91 39 -37 44 -46 35 -64 -6 -11 -11 -32
-11 -48 -1 -25 -2 -26 -11 -9 -8 13 -8 25 0 43 12 27 7 43 -13 43 -7 0 -21 9
-30 19 -22 24 -73 32 -87 14 -6 -7 -24 -13 -40 -13 -36 0 -40 -27 -5 -36 25
-6 67 -44 49 -44 -6 0 -16 7 -23 15 -7 8 -23 15 -37 15 -25 0 -27 4 -39 65 -5
27 -9 34 -12 20 -2 -11 -16 -30 -31 -42 -26 -22 -26 -22 -9 -53 14 -24 15 -36
7 -52 -6 -11 -8 -31 -5 -44 5 -20 12 -24 47 -24 48 0 80 -15 73 -34 -3 -7 2
-20 10 -29 22 -22 20 -30 -4 -17 -11 6 -20 19 -20 28 0 29 -18 40 -53 32 -24
-5 -31 -11 -30 -26 5 -38 -7 -60 -45 -86 -28 -18 -48 -24 -71 -20 -36 5 -52
22 -21 22 50 0 111 77 89 111 -5 8 -9 39 -8 69 1 30 -3 65 -10 78 -10 18 -9
28 6 52 21 37 11 49 -46 57 -46 6 -71 -8 -71 -39 0 -11 -12 -32 -27 -47 -23
-23 -28 -36 -28 -76 1 -34 5 -50 15 -53 23 -7 52 -41 45 -52 -9 -14 -26 -12
-44 3 -26 22 -101 48 -165 57 -37 6 -67 17 -81 30 -13 12 -25 18 -28 13 -3 -5
10 -21 29 -36 38 -31 42 -44 17 -62 -14 -11 -19 -10 -29 3 -10 14 -16 14 -38
4 -15 -7 -39 -12 -53 -12 -14 0 -31 -7 -38 -17 -8 -10 -19 -14 -30 -9 -17 6
-17 7 0 26 17 18 17 20 1 20 -9 0 -43 -11 -76 -25 -33 -14 -65 -25 -72 -25 -7
0 -24 -13 -38 -30 -28 -34 -76 -41 -87 -14 -5 14 4 25 32 38 6 3 1 12 -9 20
-25 20 -78 22 -70 3 2 -7 6 -39 7 -71 l2 -58 119 -34 c65 -19 179 -59 254 -89
l137 -54 185 -5 c249 -6 378 -35 576 -132 264 -129 474 -357 638 -694 36 -74
72 -142 79 -150 35 -38 27 -70 -18 -70 -26 0 -38 21 -29 56 7 29 -109 271
-184 383 -273 405 -658 600 -1147 582 l-40 -1 100 -56 c528 -296 1010 -796
1366 -1416 24 -43 47 -77 52 -78 4 0 7 20 7 44 0 126 52 354 104 461 48 98 95
148 171 186 62 30 69 32 153 27 52 -4 108 -14 140 -26 32 -12 54 -16 58 -10 4
6 10 6 17 -1 35 -35 95 11 185 144 18 28 40 57 47 65 13 15 36 124 40 195 2
29 -3 46 -17 62 -19 21 -23 21 -56 8 -42 -18 -40 -19 -38 2 1 12 -11 21 -33
29 l-35 11 25 13 c13 7 53 42 89 79 105 107 113 111 218 111 50 0 93 4 97 9 5
9 74 4 85 -6 2 -2 -2 -8 -10 -14 -10 -6 4 -8 44 -5 57 5 83 15 59 23 -21 7
-16 18 36 72 43 45 53 51 90 51 39 0 41 -1 41 -31 l0 -31 33 24 c17 13 40 27
50 31 9 3 17 16 17 27 0 21 26 38 38 25 4 -4 1 -10 -5 -12 -7 -3 -13 -16 -13
-29 0 -32 -17 -64 -33 -64 -7 0 -46 -31 -87 -70 -41 -38 -80 -70 -86 -70 -19
0 -54 -77 -54 -118 0 -42 25 -180 34 -189 10 -11 44 27 49 57 4 16 15 31 26
35 10 3 22 16 25 29 3 14 19 29 36 36 37 15 71 75 60 105 -4 11 -5 26 -3 33 3
6 -2 12 -11 12 -9 0 -16 6 -16 13 0 23 50 82 70 83 11 1 27 7 36 14 12 11 17
11 23 1 6 -9 11 -8 21 4 15 18 71 20 87 4 13 -13 54 14 80 51 8 11 18 20 23
20 5 0 35 12 67 27 32 14 60 26 63 26 3 0 18 -3 33 -7 28 -7 28 -6 21 31 -12
65 -32 96 -60 90 -13 -2 -24 -1 -24 4 0 17 22 20 52 5 17 -9 33 -16 35 -16 2
0 12 20 23 45 21 48 35 57 43 26 3 -15 13 -19 42 -18 26 1 40 -4 47 -17 9 -16
50 -39 72 -40 5 -1 15 15 21 34 11 31 16 35 48 35 49 0 55 11 22 37 -41 33
-87 41 -103 20 -12 -16 -14 -16 -28 2 -8 11 -14 26 -14 33 0 7 -21 23 -47 35
-27 12 -59 30 -73 39 -41 29 -149 57 -242 63 l-87 6 6 -35 c4 -27 2 -35 -9
-35 -15 0 -51 33 -44 41 2 2 -45 4 -105 4 -81 0 -112 -4 -118 -13 -7 -11 -9
-11 -14 2 -4 9 -13 16 -22 16 -9 0 -15 9 -15 25 0 57 -56 75 -175 55 -38 -6
-54 -5 -66 6 -8 8 -26 14 -38 14 -13 0 -20 4 -16 11 4 6 -3 13 -15 16 -16 4
-18 8 -8 14 11 7 10 11 -2 19 -23 15 -80 12 -86 -4 -3 -8 -13 -17 -22 -21 -14
-5 -14 -4 1 13 9 10 17 21 17 24 0 13 -72 19 -86 7 -11 -9 -14 -8 -14 5 0 10
-8 16 -22 16 -13 0 -33 3 -45 6 -17 5 -23 2 -23 -9 0 -9 -7 -23 -16 -32 -9 -8
-13 -23 -10 -31 5 -13 2 -15 -13 -11 -11 3 -25 -1 -32 -9 -8 -10 -16 -11 -31
-3 -11 6 -35 8 -54 5 -24 -5 -41 -2 -60 11 -26 17 -28 17 -40 -2 -37 -56 -40
-58 -62 -46 -13 7 -22 21 -22 34 0 13 -9 26 -22 32 -13 6 -27 20 -33 33 -14
31 -25 28 -25 -8 l0 -29 -23 22 c-13 13 -18 25 -12 29 5 4 6 10 2 14 -4 4 -2
13 4 21 9 10 6 13 -14 13 -14 0 -27 5 -29 11 -3 8 -10 8 -26 -2 -15 -9 -20
-20 -16 -33 5 -16 3 -18 -12 -11 -11 5 -30 8 -44 7 -14 0 -30 4 -37 10 -7 5
-17 6 -24 2 -7 -4 -19 2 -28 14 -12 17 -31 23 -78 28 -59 6 -63 6 -72 -17
l-10 -24 -7 23 c-5 17 -14 22 -41 22 -19 0 -48 -7 -64 -16 -17 -8 -54 -19 -82
-24 l-50 -8 24 19 c13 10 30 19 37 19 15 0 59 28 84 53 10 9 27 17 37 17 33 0
65 34 58 61 -14 54 -121 96 -174 67 -13 -6 -26 -8 -30 -3 -5 4 -2 10 5 12 29
11 8 23 -30 17 l-43 -6 24 20 24 19 -24 6 c-40 11 -72 6 -106 -15z m233 -1265
c-11 -62 -25 -88 -59 -107 -18 -11 -39 -28 -48 -38 -11 -14 -24 -18 -45 -16
-26 4 -27 5 -9 13 31 13 113 102 135 146 26 49 34 50 26 2z"/>
<path d="M1760 6320 c-38 -8 -76 -24 -127 -55 -37 -22 -42 -35 -15 -36 9 0 29
-2 45 -4 15 -2 27 0 27 5 0 5 14 19 31 31 29 20 32 21 41 6 8 -15 11 -15 32
-1 16 10 22 21 19 35 -7 25 -11 27 -53 19z"/>
<path d="M2426 6289 c-18 -11 -16 -13 19 -35 31 -18 43 -21 59 -12 16 9 23 7
38 -11 9 -13 20 -38 24 -56 5 -27 12 -35 35 -40 17 -4 36 -2 44 5 9 7 15 8 20
0 7 -11 133 -9 152 3 7 4 21 3 32 -3 11 -5 31 -10 45 -10 32 0 35 31 6 60 -24
24 -91 27 -131 6 -21 -11 -29 -11 -44 0 -9 7 -30 11 -44 8 -22 -5 -29 -1 -39
20 -7 15 -20 26 -31 26 -11 0 -21 5 -23 11 -2 6 -21 11 -43 12 -22 0 -42 4
-45 8 -10 14 -55 19 -74 8z"/>
<path d="M2610 6280 c0 -5 5 -10 10 -10 6 0 10 5 10 10 0 6 -4 10 -10 10 -5 0
-10 -4 -10 -10z"/>
<path d="M7477 6276 c-18 -14 -124 -40 -142 -35 -17 5 -89 -23 -122 -47 -17
-13 -36 -24 -42 -24 -5 0 -8 -11 -5 -24 5 -27 -26 -56 -58 -56 -10 0 -18 -4
-18 -10 0 -5 5 -10 12 -10 6 0 2 -9 -10 -20 -12 -12 -22 -27 -22 -35 0 -7 -14
-25 -32 -39 l-32 -25 28 -10 c15 -6 32 -11 37 -11 9 0 13 -15 10 -34 -3 -16
23 -26 73 -26 l48 0 -36 40 c-20 22 -36 49 -36 60 0 23 23 62 58 100 13 14 28
35 33 48 6 16 17 22 38 22 19 0 30 6 33 18 4 12 26 24 69 37 168 48 198 62
185 84 -10 15 -47 13 -69 -3z"/>
<path d="M2291 6266 c-32 -11 -61 -40 -61 -59 0 -7 19 -4 58 10 7 3 10 0 7 -9
-8 -20 21 -42 42 -33 10 5 26 7 36 6 15 -2 18 3 13 29 -5 34 -32 71 -50 69 -6
0 -26 -6 -45 -13z"/>
<path d="M2182 6256 c1 -10 8 -17 13 -17 15 1 12 24 -3 29 -9 3 -13 -2 -10
-12z"/>
<path d="M1828 6239 c-10 -10 -13 -19 -8 -19 23 0 8 -18 -20 -23 -36 -8 -39
-23 -6 -31 28 -7 53 0 79 22 15 14 17 13 17 -1 0 -11 8 -17 22 -17 20 0 21 -1
3 -20 -18 -19 -17 -20 7 -20 14 0 42 7 63 15 20 9 59 17 87 18 81 3 95 56 15
57 -15 0 -30 7 -33 15 -7 18 -26 20 -23 3 4 -31 -3 -38 -34 -38 -23 0 -41 8
-58 26 -14 15 -31 23 -41 21 -10 -3 -21 -1 -24 4 -8 14 -27 9 -46 -12z"/>
<path d="M9684 6215 c-33 -50 17 -87 90 -67 23 6 52 9 64 6 20 -6 82 23 82 38
0 12 -36 28 -62 28 -13 0 -30 6 -37 13 -10 10 -15 9 -25 -6 -12 -16 -16 -16
-49 -2 -46 19 -44 19 -63 -10z"/>
<path d="M9960 6183 c0 -15 59 -37 93 -35 73 6 51 28 -37 38 -36 4 -56 3 -56
-3z"/>
<path d="M1555 6113 c16 -40 16 -52 -2 -70 -25 -26 -45 -83 -29 -83 7 0 25
-13 40 -29 25 -26 30 -28 67 -19 36 10 40 14 46 50 5 34 12 43 39 54 19 8 51
21 71 29 l37 16 -26 26 c-23 23 -29 24 -57 15 -27 -9 -37 -8 -64 8 -20 13 -50
20 -81 20 -42 0 -47 -2 -41 -17z"/>
<path d="M2470 6095 c-18 -22 -25 -92 -10 -110 18 -22 30 -18 30 10 0 21 5 25
33 25 26 0 37 8 60 40 31 43 30 45 -6 31 -18 -7 -30 -6 -43 4 -25 19 -49 19
-64 0z"/>
<path d="M2110 6090 c-13 -8 -12 -11 5 -24 26 -20 41 -20 49 0 12 31 -20 46
-54 24z"/>
<path d="M2300 6047 c-9 -30 -15 -37 -28 -32 -50 19 -52 -13 -2 -36 19 -9 44
-26 54 -38 22 -24 46 -28 46 -6 0 8 6 12 15 9 8 -3 18 -3 24 0 13 9 -5 68 -26
83 -15 12 -15 14 2 33 19 21 19 22 -37 24 -34 1 -37 -2 -48 -37z"/>
<path d="M2693 6078 c-13 -6 -23 -17 -23 -24 0 -7 -6 -17 -13 -21 -8 -4 -19
-23 -25 -41 -10 -29 -8 -40 16 -88 27 -55 28 -56 64 -51 22 3 38 1 41 -6 2 -6
33 -13 70 -15 57 -4 67 -2 67 12 0 20 10 20 36 1 28 -21 43 -19 36 8 -5 20 -4
21 13 7 46 -37 87 -80 76 -80 -6 0 -11 -5 -11 -11 0 -7 11 -9 30 -6 24 5 35 0
65 -29 28 -27 35 -41 31 -59 -4 -17 -1 -24 13 -28 11 -2 23 -1 28 4 10 10 43
2 43 -10 0 -4 -12 -13 -26 -20 -21 -9 -31 -8 -55 6 -27 16 -30 16 -46 1 -13
-14 -14 -20 -3 -32 11 -14 9 -16 -13 -16 -14 0 -30 -8 -36 -17 -8 -15 -12 -16
-22 -5 -19 18 -36 15 -43 -10 -8 -34 6 -41 73 -30 34 5 61 5 61 0 0 -5 11 -14
25 -20 14 -6 24 -18 23 -27 -2 -10 11 -20 37 -29 22 -7 47 -20 56 -28 9 -8 33
-17 52 -21 32 -5 38 -2 48 21 7 14 16 26 21 26 14 0 9 57 -7 70 -8 7 -13 16
-10 20 3 5 -7 11 -23 15 -19 4 -32 16 -42 38 -7 18 -15 35 -17 39 -9 15 38 18
60 3 13 -8 31 -13 40 -9 12 4 18 -2 23 -20 7 -28 24 -36 24 -11 0 9 11 20 25
25 36 14 31 29 -15 48 -24 10 -40 24 -40 34 0 22 -18 32 -34 19 -10 -8 -19 -6
-35 8 -12 11 -32 26 -44 35 -22 15 -22 15 7 15 24 1 27 3 16 16 -7 8 -28 15
-47 15 -31 0 -34 2 -23 15 10 12 10 21 2 40 -14 31 -35 32 -54 3 -22 -33 -42
-14 -34 33 7 41 -3 50 -24 24 -11 -14 -14 -13 -25 1 -6 10 -17 14 -23 10 -8
-5 -12 3 -12 22 0 24 -6 32 -30 40 -25 9 -31 8 -40 -7 -12 -23 -60 -34 -60
-14 0 11 -4 11 -20 3 -18 -10 -20 -8 -20 22 0 49 -24 78 -66 78 -19 0 -34 -5
-34 -10 0 -6 -8 -10 -17 -8 -11 2 -18 -3 -18 -12 0 -8 -8 -18 -17 -22 -22 -9
-22 -25 -3 -71 19 -45 19 -53 0 -37 -8 6 -19 9 -25 5 -6 -4 -10 14 -10 53 0
50 4 62 25 82 24 22 24 25 8 31 -25 10 -44 9 -70 -3z"/>
<path d="M9777 6071 l-29 -18 57 -8 c66 -8 79 -1 46 26 -29 24 -39 24 -74 0z"/>
<path d="M2926 6046 c11 -16 25 -21 59 -21 48 0 51 2 32 26 -8 10 -28 16 -59
16 -45 0 -46 -1 -32 -21z"/>
<path d="M1804 6035 c-25 -11 -83 -83 -72 -89 47 -25 57 -27 78 -16 19 10 21
9 18 -7 -3 -13 -12 -18 -38 -18 -24 0 -35 -5 -35 -15 0 -18 35 -28 111 -29 53
-1 84 -12 84 -31 0 -3 -26 -2 -58 4 -63 10 -116 2 -110 -16 6 -16 27 -26 70
-33 23 -4 39 -12 43 -24 4 -15 14 -17 63 -13 35 3 65 11 77 22 22 19 56 20
135 1 43 -10 46 -9 69 17 14 15 28 26 33 24 4 -1 8 4 8 12 0 21 -47 55 -69 49
-16 -4 -22 5 -35 49 -24 77 -39 99 -80 113 -41 14 -44 8 -26 -54 12 -43 5 -53
-12 -16 -11 25 -15 27 -60 21 -40 -6 -47 -4 -42 9 9 22 -35 36 -61 19 -28 -20
-35 -17 -35 11 0 28 -11 30 -56 10z"/>
<path d="M2456 5929 c-17 -18 -26 -36 -22 -45 3 -8 1 -24 -4 -34 -9 -17 -5
-21 30 -31 40 -12 49 -22 30 -34 -16 -10 -12 -25 5 -19 28 11 15 -15 -14 -31
-20 -10 -31 -24 -33 -42 l-3 -28 -15 29 c-17 34 -40 46 -40 21 0 -14 -10 -16
-77 -12 -98 6 -130 14 -169 44 -27 20 -35 22 -62 12 -39 -13 -44 -38 -7 -31
25 4 35 -11 15 -23 -5 -3 -10 -18 -11 -33 0 -27 0 -27 -11 -4 -7 14 -17 21
-26 17 -8 -3 -20 3 -27 12 -11 15 -18 16 -44 6 -44 -16 -127 9 -135 41 -5 20
-14 24 -71 29 -44 4 -75 13 -92 27 -31 24 -56 25 -89 3 -24 -15 -25 -15 -31 6
-5 20 -6 20 -19 4 -12 -17 -15 -16 -46 15 -39 37 -54 40 -63 14 -3 -11 -15
-24 -28 -31 -41 -22 -65 -37 -81 -50 -9 -8 -19 -11 -23 -8 -10 11 19 38 59 54
21 8 38 19 38 24 0 12 -37 11 -45 -1 -3 -5 -14 -10 -24 -10 -9 0 -30 -13 -46
-30 -34 -36 -51 -37 -136 -9 -90 30 -121 38 -229 54 -52 8 -114 18 -138 23
-23 5 -45 6 -47 2 -8 -12 -45 1 -45 15 0 9 -14 13 -45 12 -33 -2 -48 3 -58 17
-14 19 -15 19 -42 -2 -15 -12 -33 -22 -40 -22 -7 0 -18 -7 -25 -15 -7 -8 -16
-12 -21 -10 -12 8 -80 -29 -108 -59 -14 -15 -35 -26 -51 -26 -24 0 -50 -16
-50 -30 0 -4 18 -15 39 -25 22 -10 42 -24 45 -31 3 -8 23 -17 45 -20 23 -4 46
-13 53 -22 11 -13 9 -14 -15 -8 -20 5 -27 3 -27 -9 0 -20 -24 -19 -45 1 -11
12 -25 14 -47 10 -59 -12 -105 -56 -58 -56 13 0 20 -7 20 -19 0 -24 4 -27 58
-36 36 -6 42 -4 42 10 0 13 3 15 13 7 7 -6 24 -8 37 -5 19 5 22 3 17 -11 -4
-10 -7 -26 -7 -35 0 -10 -15 -26 -35 -37 -31 -17 -37 -17 -46 -4 -8 12 -12 12
-16 2 -3 -7 -17 -27 -31 -44 -24 -28 -24 -31 -9 -43 9 -7 17 -17 17 -23 0 -6
10 -12 22 -14 17 -2 22 -9 21 -26 -3 -25 9 -29 27 -7 19 23 32 18 29 -13 -2
-15 0 -33 4 -40 5 -6 5 -16 2 -22 -8 -13 1 -13 25 2 16 10 24 10 40 1 10 -7
22 -9 25 -4 3 5 14 7 24 4 15 -4 19 -12 16 -34 -5 -38 -13 -49 -36 -49 -10 0
-28 -9 -39 -20 -11 -11 -28 -20 -38 -20 -18 0 -62 -39 -62 -54 0 -5 10 -2 22
6 13 8 38 18 57 21 19 4 49 18 67 32 18 14 35 25 38 25 3 0 21 16 41 35 19 20
35 32 35 28 0 -3 14 6 30 22 22 21 30 38 30 62 0 25 4 33 18 33 10 0 23 5 30
12 7 7 5 -6 -5 -30 -18 -48 -12 -63 15 -39 10 10 24 17 30 17 6 0 18 13 26 28
24 47 43 58 64 38 10 -9 22 -13 26 -9 4 4 12 0 18 -10 8 -14 13 -16 24 -6 11
9 14 8 14 -5 0 -19 40 -31 75 -22 16 4 25 2 25 -5 0 -7 10 -9 29 -6 23 5 34 0
62 -29 34 -35 66 -46 55 -19 -3 9 0 15 9 15 8 0 15 -7 15 -15 0 -21 18 -19 23
3 4 16 5 16 6 0 0 -10 7 -18 15 -18 15 0 30 -27 27 -47 -1 -7 3 -13 8 -13 6 0
7 -7 4 -17 -4 -11 -3 -14 5 -9 16 9 61 -25 62 -46 0 -9 5 -20 10 -23 6 -3 10
-13 10 -21 0 -8 -4 -12 -10 -9 -5 3 -10 1 -10 -5 0 -7 8 -9 21 -5 14 5 19 3
15 -3 -4 -6 2 -16 13 -21 10 -6 22 -22 25 -36 4 -16 13 -25 26 -25 11 0 20 -4
20 -10 0 -5 -4 -10 -10 -10 -5 0 -10 -8 -10 -18 0 -20 61 -55 83 -46 13 5 43
-44 33 -54 -8 -7 -37 19 -31 27 2 4 -1 8 -8 9 -7 1 -24 4 -39 8 -43 10 -33
-10 25 -50 60 -41 67 -43 60 -17 -9 33 14 31 32 -3 12 -22 15 -40 10 -52 -8
-18 -9 -18 -12 2 -3 14 -14 24 -29 27 -24 4 -25 2 -19 -22 4 -14 6 -50 5 -80
-1 -49 -6 -59 -44 -102 -112 -124 -92 -316 42 -413 59 -43 116 -60 187 -54 47
4 56 2 61 -14 3 -11 19 -33 35 -49 25 -26 28 -33 17 -46 -13 -16 -6 -25 50
-63 12 -8 24 -25 27 -37 2 -12 19 -36 37 -52 39 -35 61 -41 31 -8 -11 12 -27
40 -34 62 -7 22 -18 45 -25 50 -6 6 -18 24 -28 40 -9 17 -25 41 -35 55 -11 14
-22 40 -26 58 -7 32 -6 32 18 21 15 -7 31 -28 41 -53 9 -22 36 -61 61 -86 24
-25 44 -51 45 -58 0 -8 23 -34 50 -59 61 -55 74 -76 72 -125 -2 -49 15 -65
143 -128 102 -50 140 -59 175 -40 14 7 27 2 60 -23 23 -17 56 -40 73 -49 27
-15 31 -23 29 -52 -4 -41 18 -86 55 -116 22 -17 39 -21 83 -19 59 3 140 -16
140 -31 0 -20 19 -9 22 13 2 16 11 23 30 25 23 3 30 -2 44 -35 9 -21 17 -62
18 -91 1 -51 -1 -56 -41 -98 -24 -24 -43 -47 -43 -51 0 -5 -7 -21 -15 -37 -16
-31 -13 -62 5 -51 17 11 11 -21 -10 -48 -22 -28 -18 -84 6 -94 16 -6 64 -86
64 -107 0 -27 16 -26 58 5 53 39 148 77 236 95 101 20 332 28 461 16 65 -7
114 -7 120 -2 19 16 -38 343 -66 376 -5 7 -41 15 -79 19 -45 4 -70 12 -74 21
-3 8 -12 14 -21 14 -8 0 -15 6 -15 14 0 20 -39 46 -68 46 -19 0 -22 4 -17 20
5 15 2 20 -14 20 -11 0 -22 9 -26 20 -6 20 -45 29 -45 10 0 -15 -121 0 -138
17 -26 25 -97 7 -86 -22 4 -8 3 -23 0 -32 -12 -29 -24 4 -19 48 l5 38 -36 -11
c-20 -6 -36 -15 -36 -19 0 -5 -6 -6 -14 -3 -9 4 -21 -5 -30 -23 -9 -15 -22
-36 -30 -47 -14 -18 -16 -18 -51 4 -34 21 -37 21 -74 7 -31 -13 -42 -13 -55
-4 -16 12 -16 15 -1 51 11 25 14 51 10 72 -9 53 -25 50 -19 -3 4 -36 1 -53
-11 -68 -16 -19 -16 -18 -10 18 9 54 -1 80 -26 67 -10 -6 -19 -19 -19 -29 0
-10 -9 -26 -20 -36 -12 -10 -18 -25 -16 -32 6 -16 -18 -17 -45 -2 -24 12 -42
55 -34 80 9 29 26 23 19 -6 -6 -26 17 -65 40 -65 6 0 0 7 -12 16 -27 19 -28
45 -2 62 15 9 20 23 20 56 0 44 0 45 -37 48 -28 2 -37 7 -34 18 2 8 6 27 9 43
2 15 8 27 12 27 4 0 10 15 12 33 3 17 8 40 13 49 10 25 -18 33 -66 19 -32 -10
-41 -18 -46 -41 -7 -36 -17 -44 -71 -58 -56 -13 -86 1 -120 59 -19 32 -25 56
-25 94 1 39 8 141 12 176 1 3 20 18 44 34 29 19 56 28 90 29 26 1 47 -2 47 -6
0 -5 14 -7 30 -6 20 2 29 7 26 15 -3 7 1 13 9 13 20 0 19 16 -4 83 -58 166
-158 293 -278 350 -63 30 -75 32 -173 32 -84 0 -120 -5 -180 -24 -98 -32 -250
-109 -250 -126 0 -21 -32 -35 -53 -24 -21 12 -21 37 -2 63 9 11 15 41 15 69 0
63 34 231 67 327 66 197 183 322 346 371 59 19 86 21 181 16 118 -5 218 -31
345 -88 35 -16 67 -26 72 -23 15 9 49 -16 49 -35 0 -42 -62 -52 -75 -12 -6 19
-102 66 -200 99 -253 85 -481 25 -606 -159 -77 -113 -127 -265 -145 -440 -3
-35 -8 -67 -11 -71 -2 -5 -1 -8 4 -7 4 0 31 35 58 77 143 219 332 368 510 401
32 6 61 11 63 11 2 0 -3 11 -12 25 -18 27 -21 55 -7 55 12 0 48 -46 56 -71 4
-11 10 -17 15 -14 17 11 149 -24 225 -59 42 -20 107 -58 144 -85 66 -50 220
-202 277 -275 l31 -40 57 116 c73 149 168 306 260 429 60 79 74 105 74 134 0
22 -6 40 -17 48 -16 11 -45 53 -46 67 0 3 -7 15 -16 28 l-17 23 -6 -27 c-8
-32 -19 -43 -74 -71 l-42 -21 6 22 c3 15 -3 28 -22 45 -19 17 -23 26 -15 34 6
6 11 21 11 33 0 17 -8 24 -29 29 -15 3 -41 19 -57 36 -25 27 -33 29 -71 23
-36 -5 -43 -3 -43 10 0 17 -26 21 -49 7 -9 -6 -11 -18 -7 -34 3 -14 1 -29 -4
-32 -6 -4 -7 -11 -3 -18 14 -23 12 -69 -3 -93 -16 -24 -16 -26 10 -52 35 -38
35 -84 0 -117 -31 -29 -44 -31 -44 -10 0 25 -36 88 -67 117 -39 37 -93 58
-153 58 -63 0 -106 -18 -158 -64 l-39 -36 -7 40 c-3 22 -12 41 -19 41 -6 1
-19 2 -27 3 -21 2 -25 68 -5 103 48 86 60 99 110 116 6 2 4 11 -4 21 -8 9 -21
14 -29 11 -8 -3 -21 0 -28 6 -26 22 -14 28 26 14 34 -12 43 -12 67 0 16 8 35
15 44 15 9 0 21 11 27 25 16 34 16 35 -12 35 -13 0 -41 8 -62 17 l-39 17 29 4
c15 2 42 -2 59 -9 21 -9 32 -10 34 -2 2 5 10 19 18 29 12 16 17 17 34 7 34
-21 53 -17 46 10 -6 21 -5 21 9 3 14 -18 17 -18 41 -2 35 23 42 46 20 62 -15
11 -16 16 -4 30 18 22 21 51 7 60 -13 8 -82 7 -110 -2 -11 -3 -18 -16 -18 -32
-1 -15 -7 -40 -14 -57 l-13 -30 -21 41 c-30 58 -48 71 -64 45 -18 -29 -28 -26
-28 8 0 26 -4 30 -32 33 -34 3 -32 -2 -58 104 -13 54 -30 59 -64 23z m-742
-284 c-5 -11 1 -15 20 -15 16 0 26 -6 26 -15 0 -8 -9 -15 -20 -15 -10 0 -29
-10 -41 -22 -17 -18 -21 -19 -16 -5 8 21 -6 22 -23 2 -14 -17 -50 -21 -50 -5
0 5 9 14 21 21 25 13 15 26 -26 31 -28 4 -27 5 20 20 66 22 96 23 89 3z m306
-205 c17 -11 20 -9 -53 -50 -32 -18 -61 -39 -64 -46 -7 -19 -93 -19 -93 -1 0
8 11 19 25 25 22 10 24 15 15 31 -16 30 -13 31 31 16 42 -15 64 -11 89 19 14
18 28 20 50 6z m837 -266 c55 -45 76 -86 77 -153 0 -57 -26 -127 -44 -116 -5
3 -2 18 6 33 7 15 14 52 14 83 0 132 -131 210 -250 149 -70 -36 -81 -17 -12
20 29 16 52 20 104 17 57 -2 72 -7 105 -33z m-27 -34 c38 -27 60 -74 60 -127
0 -39 -18 -84 -21 -53 -1 8 -1 33 0 55 2 52 -26 96 -74 119 -35 17 -53 17
-112 0 -13 -3 -23 -2 -23 3 0 38 119 39 170 3z m-18 -39 c42 -38 29 -52 -13
-16 -28 23 -39 26 -71 21 -35 -6 -48 1 -31 17 3 4 24 7 45 7 28 0 46 -8 70
-29z m-20 -29 c11 -14 10 -15 -7 -8 -11 5 -28 11 -37 13 -27 8 -21 21 7 16 13
-3 30 -12 37 -21z m180 -160 c-9 -25 -30 -44 -41 -38 -5 4 -2 23 7 46 15 34
19 38 29 24 6 -9 9 -23 5 -32z m-1441 -452 c-47 -83 -36 -182 27 -252 47 -52
102 -77 169 -78 57 0 79 -16 38 -26 -38 -9 -109 2 -153 25 -90 46 -151 160
-137 255 8 54 67 161 73 132 2 -10 -5 -36 -17 -56z m25 -64 c-4 -31 -3 -72 3
-94 14 -52 76 -109 128 -117 57 -10 73 -18 44 -23 -69 -11 -148 38 -182 113
-21 46 -23 84 -8 138 15 54 22 45 15 -17z m49 -85 c13 -27 29 -52 35 -56 5 -3
15 -15 21 -26 9 -18 8 -19 -8 -11 -35 19 -64 62 -77 115 -10 41 1 33 29 -22z
m35 -2 c0 -11 -4 -17 -10 -14 -5 3 -10 13 -10 21 0 8 5 14 10 14 6 0 10 -9 10
-21z m1026 -910 c0 -52 29 -79 85 -79 49 0 60 -17 15 -25 -65 -13 -126 43
-126 115 0 17 5 30 13 30 7 0 12 -15 13 -41z"/>
<path d="M10985 5910 c-10 -11 -16 -22 -14 -23 2 -2 26 -2 52 1 38 3 47 8 45
21 -5 25 -60 26 -83 1z"/>
<path d="M3746 5911 c-3 -5 1 -11 9 -15 8 -3 15 -1 15 4 0 13 -18 22 -24 11z"/>
<path d="M6264 5885 c-4 -8 -11 -12 -16 -9 -6 4 -19 -4 -29 -17 -13 -17 -19
-20 -19 -8 0 8 5 20 12 27 7 7 9 12 5 12 -12 0 -61 -33 -73 -49 -8 -10 -13
-11 -18 -3 -4 7 -16 12 -28 12 -17 0 -18 -2 -8 -15 8 -9 9 -15 2 -15 -6 0 -14
5 -17 10 -9 14 -25 12 -25 -2 0 -7 -20 -21 -44 -31 -24 -10 -47 -25 -50 -33
-7 -18 -21 -18 -39 1 -13 13 -16 11 -21 -10 -4 -16 -14 -25 -26 -25 -10 0 -22
-4 -25 -10 -8 -13 16 -13 49 0 15 5 26 6 26 0 0 -5 -9 -12 -21 -15 -51 -16 13
-23 266 -29 190 -4 305 -11 388 -24 112 -18 118 -18 133 -1 22 25 12 46 -33
66 -21 10 -49 25 -63 34 -36 24 -110 43 -123 30 -13 -13 -36 9 -29 27 3 10 -3
13 -24 11 -56 -4 -68 -1 -54 17 16 18 -2 41 -37 47 -12 2 -26 6 -29 10 -12 11
-24 8 -30 -8z"/>
<path d="M6116 5871 c-3 -5 1 -11 9 -14 9 -4 12 -1 8 9 -6 16 -10 17 -17 5z"/>
<path d="M3742 5815 c12 -26 24 -30 46 -16 10 6 7 12 -12 24 -37 24 -48 22
-34 -8z"/>
<path d="M6005 5820 c3 -5 8 -10 11 -10 2 0 4 5 4 10 0 6 -5 10 -11 10 -5 0
-7 -4 -4 -10z"/>
<path d="M2360 5805 c-7 -8 -19 -15 -26 -15 -28 0 -13 -19 24 -29 83 -24 103
-8 45 36 -27 21 -32 22 -43 8z"/>
<path d="M2925 5810 c-3 -5 -1 -10 4 -10 6 0 11 5 11 10 0 6 -2 10 -4 10 -3 0
-8 -4 -11 -10z"/>
<path d="M3827 5813 c-4 -3 -7 -11 -7 -17 0 -6 5 -5 12 2 6 6 9 14 7 17 -3 3
-9 2 -12 -2z"/>
<path d="M6915 5780 c-11 -18 26 -23 43 -6 15 15 14 16 -10 16 -15 0 -30 -5
-33 -10z"/>
<path d="M2722 5740 c0 -14 2 -19 5 -12 2 6 2 18 0 25 -3 6 -5 1 -5 -13z"/>
<path d="M5927 5653 c-72 -3 -89 -7 -94 -21 -4 -9 -12 -21 -20 -25 -7 -4 -13
-15 -13 -22 0 -8 -4 -15 -10 -15 -5 0 -10 -7 -10 -15 0 -9 -11 -20 -24 -24
-27 -11 -43 -41 -21 -41 8 0 15 -5 15 -11 0 -6 -9 -8 -20 -4 -14 4 -27 -2 -44
-20 -15 -16 -27 -22 -31 -15 -4 6 -14 4 -30 -7 -12 -10 -21 -21 -18 -25 2 -5
-3 -8 -11 -8 -9 0 -16 -4 -16 -10 0 -5 7 -10 16 -10 8 0 12 -5 9 -10 -4 -6
-11 -8 -16 -5 -5 4 -9 1 -9 -4 0 -6 8 -11 18 -12 11 -1 9 -4 -8 -9 -14 -4 -20
-8 -13 -9 7 -1 10 -8 6 -17 -4 -10 2 -17 17 -21 l24 -6 -22 -8 c-30 -11 -28
-45 5 -66 32 -21 60 -18 89 8 11 10 26 19 32 19 7 0 12 8 12 18 1 15 2 15 15
-2 22 -29 18 -45 -12 -52 -42 -11 -97 -48 -132 -91 -35 -42 -37 -49 -17 -56 9
-4 23 8 38 29 12 18 26 34 31 34 13 0 7 -37 -8 -50 -17 -14 -20 -40 -6 -40 5
0 17 7 26 17 16 15 17 15 13 -6 -2 -19 7 -27 59 -51 60 -28 63 -28 73 -10 5
10 10 26 10 34 0 15 -4 15 -35 2 -45 -19 -55 -3 -11 18 19 9 38 16 43 16 5 0
17 32 27 70 10 39 36 105 57 148 22 42 42 92 45 112 6 35 58 100 79 100 18 0
48 37 42 52 -2 7 3 25 11 41 12 19 24 27 45 27 32 0 67 -16 67 -30 0 -5 -25
-35 -55 -65 -30 -31 -55 -57 -55 -58 0 -1 44 -2 98 -2 88 0 103 -4 164 -32 37
-17 87 -45 112 -62 51 -35 56 -37 56 -16 0 8 5 15 10 15 13 0 13 -13 0 -26 -8
-8 -1 -19 22 -36 54 -41 75 -41 173 -3 114 45 273 91 389 111 50 9 98 19 106
21 35 12 -243 115 -437 163 -108 26 -128 23 -119 -20 7 -35 -11 -39 -58 -15
-15 8 -32 15 -37 15 -15 0 -10 -29 7 -38 9 -5 14 -14 10 -21 -9 -15 -22 -14
-38 2 -7 7 -21 16 -30 20 -12 4 -18 17 -18 40 0 22 -8 41 -23 55 -20 19 -41
23 -162 32 -134 9 -195 10 -388 3z m601 -260 c2 -12 -4 -23 -14 -27 -23 -9
-30 0 -15 18 7 8 9 20 5 27 -4 7 -2 10 7 7 8 -3 15 -14 17 -25z m-678 -163 c0
-5 -4 -10 -10 -10 -5 0 -10 5 -10 10 0 6 5 10 10 10 6 0 10 -4 10 -10z m-70
-64 c0 -7 -10 -16 -22 -19 -29 -8 -33 -3 -13 17 20 20 35 21 35 2z m30 -44 c0
-5 -18 -16 -40 -25 -45 -17 -54 -5 -12 17 31 17 52 20 52 8z m10 -52 c0 -5 -4
-10 -10 -10 -5 0 -10 5 -10 10 0 6 5 10 10 10 6 0 10 -4 10 -10z m-50 -10 c0
-5 -4 -10 -10 -10 -5 0 -10 5 -10 10 0 6 5 10 10 10 6 0 10 -4 10 -10z m-25
-20 c3 -5 1 -10 -4 -10 -6 0 -11 5 -11 10 0 6 2 10 4 10 3 0 8 -4 11 -10z"/>
<path d="M6720 5631 c0 -10 42 -23 49 -15 7 6 -20 24 -36 24 -7 0 -13 -4 -13
-9z"/>
<path d="M4677 5605 l-18 -25 35 0 c45 0 55 -16 15 -25 -21 -5 -27 -10 -19
-15 7 -4 21 -5 31 -3 24 7 25 -15 2 -33 -16 -12 -16 -13 8 -14 14 0 41 -5 58
-11 27 -10 43 -8 87 7 91 31 139 91 98 124 -19 17 -73 23 -88 11 -6 -5 -29
-11 -51 -12 -22 -2 -45 -10 -51 -17 -9 -12 -15 -10 -37 12 -32 32 -47 32 -70
1z"/>
<path d="M2745 5590 c-4 -6 -7 -28 -8 -48 0 -20 -5 -43 -10 -49 -7 -10 -4 -13
11 -13 11 0 22 -5 24 -12 3 -9 14 -6 37 9 30 19 36 19 63 6 35 -18 42 -13 28
18 -12 25 -68 69 -93 73 -8 1 -22 8 -30 14 -11 9 -17 10 -22 2z"/>
<path d="M4045 5456 c-84 -27 -155 -62 -155 -77 0 -6 5 -7 10 -4 6 3 10 1 10
-5 0 -25 29 -41 64 -35 31 6 35 4 38 -17 2 -18 10 -24 35 -26 30 -3 33 0 44
38 10 33 10 49 1 73 -12 30 -10 34 15 54 35 28 26 28 -62 -1z"/>
<path d="M2985 5460 c3 -5 10 -10 16 -10 5 0 9 5 9 10 0 6 -7 10 -16 10 -8 0
-12 -4 -9 -10z"/>
<path d="M6109 5419 c-23 -9 -26 -14 -25 -62 1 -43 5 -52 21 -56 11 -2 23 -8
27 -14 5 -8 23 -6 61 6 63 20 81 21 109 6 20 -11 20 -11 -1 -26 -12 -8 -36
-14 -54 -13 -86 5 -107 -6 -82 -43 13 -20 14 -30 6 -46 -10 -17 -15 -19 -36
-9 -33 15 -52 5 -60 -32 l-7 -31 -44 41 c-24 22 -55 45 -69 50 -32 12 -32 28
0 36 27 7 34 24 9 24 -8 0 -13 4 -10 9 3 5 15 7 26 4 25 -7 27 18 4 38 -13 10
-17 10 -25 -2 -24 -35 -42 -76 -64 -142 l-23 -71 28 -17 c34 -21 46 -39 26
-39 -8 0 -18 5 -21 10 -3 6 -14 10 -23 10 -16 -1 -16 -2 1 -14 23 -17 22 -30
-2 -23 -14 3 -21 -2 -26 -20 -3 -13 -3 -28 -1 -32 3 -5 47 -11 98 -15 370 -28
633 -92 904 -221 74 -35 116 -50 125 -44 8 5 27 9 43 9 27 0 28 -2 23 -33 -5
-30 -2 -35 36 -57 23 -13 72 -45 108 -71 l66 -49 74 16 c224 47 389 -83 479
-378 l24 -78 35 0 c51 0 348 -46 461 -70 163 -36 397 -104 504 -146 16 -6 14
1 -11 47 -113 205 -306 483 -482 694 -96 116 -354 373 -451 450 -183 146 -324
240 -483 325 l-116 61 -98 -16 c-231 -38 -536 -136 -548 -175 -13 -40 -75 -32
-75 9 0 19 -19 37 -95 92 -131 95 -281 139 -366 108z m302 -80 c16 -11 29 -23
29 -27 0 -15 -16 -30 -37 -36 -18 -6 -25 -1 -38 24 -13 25 -14 35 -4 46 15 18
15 18 50 -7z m-129 -124 c3 -14 2 -25 -1 -25 -10 0 -30 37 -24 44 12 12 21 6
25 -19z m-304 -78 c45 -34 73 -72 66 -92 -5 -13 -11 -9 -30 19 -13 18 -39 44
-59 56 -19 12 -33 26 -29 31 8 14 17 11 52 -14z m-28 -50 c14 -12 32 -31 40
-41 13 -18 13 -19 0 -11 -43 26 -89 63 -83 69 10 9 16 7 43 -17z m1920 -419
c0 -9 1 -9 -80 -11 -47 -2 -57 -5 -65 -24 -11 -25 -20 -29 -30 -12 -4 6 3 21
15 34 20 21 30 24 91 22 38 -1 69 -5 69 -9z m-586 -43 c1 -31 -3 -40 -18 -43
-16 -3 -18 0 -12 22 4 15 2 26 -4 26 -5 0 -10 -9 -10 -20 0 -11 -4 -20 -10
-20 -18 0 -11 34 13 57 30 30 40 24 41 -22z"/>
<path d="M5282 5213 c-27 -5 -50 -41 -30 -48 59 -19 93 -24 100 -13 10 17 -12
28 -41 21 -23 -6 -23 -5 -6 21 10 14 13 25 9 25 -5 -1 -19 -4 -32 -6z"/>
<path d="M5205 5200 c-3 -5 -1 -10 4 -10 6 0 11 5 11 10 0 6 -2 10 -4 10 -3 0
-8 -4 -11 -10z"/>
<path d="M637 5178 c-23 -12 -22 -28 2 -28 25 0 47 26 28 33 -7 3 -21 1 -30
-5z"/>
<path d="M5230 5132 c0 -5 -18 -14 -40 -21 -22 -6 -40 -16 -40 -21 0 -13 4
-12 33 1 18 8 30 8 43 0 18 -10 18 -10 -1 -11 -11 0 -27 -5 -35 -10 -13 -8
-13 -11 1 -25 9 -9 27 -17 42 -18 14 -1 33 -11 42 -22 16 -20 16 -20 5 2 -6
13 -19 27 -30 33 -11 6 -20 15 -20 21 0 20 60 -22 66 -47 4 -14 5 -26 3 -27
-2 -1 -16 -13 -31 -26 -26 -23 -28 -23 -53 -7 -14 9 -25 25 -25 35 0 23 -35
56 -45 42 -12 -20 -22 -11 -18 17 l5 27 -17 -23 c-13 -18 -16 -37 -12 -88 3
-36 7 -66 8 -68 2 -1 30 -11 62 -21 49 -17 62 -17 90 -6 55 22 71 25 63 13 -4
-7 -15 -12 -25 -12 -10 0 -26 -9 -37 -21 -18 -20 -18 -20 11 -13 16 4 36 7 45
7 8 -1 22 1 30 5 8 3 33 6 55 6 33 1 40 4 38 20 -1 11 5 25 13 33 20 20 17 44
-5 50 -10 2 -25 20 -34 39 -9 19 -21 34 -26 34 -5 0 -14 13 -19 29 -6 16 -20
32 -31 36 -12 3 -21 10 -21 15 0 5 -17 14 -37 19 -46 13 -53 13 -53 3z m40
-52 c0 -5 -4 -10 -10 -10 -5 0 -10 5 -10 10 0 6 5 10 10 10 6 0 10 -4 10 -10z
m60 -67 c0 -5 -5 -15 -10 -23 -8 -12 -10 -11 -10 8 0 12 5 22 10 22 6 0 10 -3
10 -7z m-50 -71 c0 -8 -43 -32 -55 -32 -13 0 -2 17 18 26 29 15 37 16 37 6z
m0 -41 c3 -1 -2 -6 -10 -11 -26 -17 -100 -10 -100 10 0 5 82 6 110 1z"/>
<path d="M1280 5089 c13 -24 26 -25 26 -1 0 10 -8 19 -18 19 -15 2 -16 -2 -8
-18z"/>
<path d="M3454 4996 c-86 -113 -146 -206 -136 -206 5 0 16 10 24 22 13 19 25
22 94 23 79 2 79 3 164 60 47 31 86 58 88 60 2 2 -12 15 -32 30 l-34 26 -41
-20 c-32 -17 -39 -18 -35 -6 4 8 14 15 23 15 9 1 27 7 40 14 l23 13 -40 21
c-22 11 -43 18 -46 15 -3 -3 -11 -1 -18 4 -10 8 -28 -9 -74 -71z"/>
<path d="M1330 5050 c0 -5 5 -10 11 -10 5 0 7 5 4 10 -3 6 -8 10 -11 10 -2 0
-4 -4 -4 -10z"/>
<path d="M310 5040 c-8 -5 -11 -12 -7 -16 4 -4 13 -2 19 4 15 15 7 24 -12 12z"/>
<path d="M5556 5008 c-3 -13 -6 -39 -6 -58 0 -43 -7 -53 -47 -74 -18 -9 -33
-23 -33 -32 0 -8 -11 -19 -25 -24 -14 -5 -25 -14 -25 -20 0 -6 -9 -6 -26 0
-36 14 -37 13 -30 -16 7 -26 6 -27 -31 -21 -48 8 -72 -5 -54 -27 7 -9 16 -14
20 -12 12 7 51 -14 51 -28 0 -7 7 -16 15 -20 8 -3 15 -18 15 -33 l1 -28 21 30
c35 49 151 160 198 190 25 16 78 45 119 65 l75 37 -58 26 c-32 15 -64 27 -70
27 -7 0 -17 5 -24 12 -10 10 -16 7 -30 -12 -9 -14 -20 -34 -24 -45 -4 -11 -5
4 -2 33 4 41 2 52 -9 52 -8 0 -17 -10 -21 -22z"/>
<path d="M265 5010 c-3 -5 -1 -10 4 -10 6 0 11 5 11 10 0 6 -2 10 -4 10 -3 0
-8 -4 -11 -10z"/>
<path d="M9839 4997 c-14 -10 -16 -36 -15 -173 l1 -161 27 0 c26 0 26 0 11 33
-22 45 -11 88 22 82 24 -5 24 -5 10 29 -8 19 -19 71 -25 115 -5 45 -11 82 -12
84 -2 1 -10 -3 -19 -9z"/>
<path d="M1365 4980 c3 -5 8 -10 11 -10 2 0 4 5 4 10 0 6 -5 10 -11 10 -5 0
-7 -4 -4 -10z"/>
<path d="M1400 4946 c0 -8 5 -18 10 -21 6 -3 10 1 10 9 0 8 -4 18 -10 21 -5 3
-10 -1 -10 -9z"/>
<path d="M5855 4910 c-4 -7 -19 -10 -33 -7 -18 3 -49 -7 -95 -30 -253 -127
-387 -310 -387 -528 0 -30 4 -55 8 -55 4 0 23 15 40 33 22 22 30 39 26 50 -9
23 19 63 59 83 38 20 48 33 42 55 -9 28 22 45 58 31 28 -11 35 -9 69 13 49 33
74 32 92 -2 18 -35 72 -86 111 -106 46 -23 68 -53 67 -89 l-1 -33 19 25 c14
18 16 28 8 38 -17 20 6 39 27 22 8 -7 18 -10 22 -6 8 8 -27 46 -43 46 -7 0
-18 9 -24 20 -6 11 -19 20 -30 20 -11 0 -26 12 -34 28 -8 15 -23 36 -35 46
-25 23 -28 64 -4 73 9 4 19 1 21 -5 2 -7 10 -12 17 -12 8 0 20 -12 27 -27 7
-16 27 -35 43 -43 17 -8 30 -20 30 -25 0 -6 10 -11 23 -13 26 -4 46 -36 39
-63 -3 -10 8 -38 24 -64 25 -40 32 -45 56 -40 25 6 26 5 8 -6 -11 -7 -21 -13
-23 -15 -2 -1 4 -14 13 -28 19 -28 35 -26 35 4 0 10 7 23 16 28 14 8 14 11 -7
26 -19 13 -21 18 -10 25 9 6 10 11 2 15 -20 13 -13 38 9 31 11 -3 20 -2 20 3
0 16 38 21 57 7 15 -11 22 -11 38 1 10 8 27 14 37 14 23 0 23 5 -2 40 -20 28
-20 28 0 53 11 14 20 32 20 41 0 9 5 16 10 16 6 0 13 8 17 18 14 40 73 82 73
52 0 -5 11 -10 25 -10 29 0 32 -8 8 -26 -17 -12 -17 -14 -1 -30 17 -17 47 -15
78 6 13 8 12 11 -4 23 -11 8 -16 19 -12 25 9 14 103 45 119 38 7 -3 3 -7 -11
-12 -17 -5 -20 -10 -12 -19 11 -14 -11 -45 -32 -45 -6 0 23 -24 63 -53 77 -55
93 -82 63 -104 -27 -20 -113 -16 -157 7 -47 25 -73 25 -122 0 -22 -12 -48 -19
-58 -16 -10 2 -21 -4 -27 -15 -8 -14 -22 -19 -50 -19 -21 0 -42 -5 -45 -11 -4
-5 3 -35 15 -65 18 -44 30 -58 57 -69 27 -12 38 -12 54 -2 15 9 23 9 39 -1 24
-15 66 -16 75 -2 3 6 17 10 31 10 21 0 24 -4 24 -36 0 -21 -10 -64 -22 -96
-25 -69 -49 -87 -95 -70 -21 7 -38 6 -60 -3 -42 -18 -139 5 -226 52 -41 22
-87 2 -87 -37 0 -42 -22 -55 -59 -36 -16 9 -36 16 -44 16 -7 0 -26 13 -40 29
-17 19 -40 32 -64 36 -47 8 -92 25 -99 37 -3 5 2 18 11 28 11 13 15 25 10 37
-5 10 -7 28 -6 41 3 23 1 23 -51 17 -29 -4 -75 -7 -103 -7 -69 0 -137 -16
-195 -44 l-49 -23 11 -38 c20 -75 49 -131 71 -137 12 -3 76 -8 142 -10 127 -4
188 -19 257 -63 44 -27 85 -84 94 -131 4 -17 7 -32 8 -32 1 0 53 15 116 33 63
19 176 49 250 66 179 43 166 38 146 59 -9 10 -16 24 -16 32 0 7 10 1 21 -14
22 -28 34 -26 42 9 4 15 5 13 6 -7 0 -16 7 -28 14 -28 6 0 68 11 137 24 201
40 566 73 862 79 l108 2 -69 86 c-38 47 -118 132 -177 188 -124 117 -123 117
-225 55 -53 -32 -59 -39 -59 -69 0 -29 -3 -33 -34 -39 -18 -4 -41 -4 -50 0
-21 8 -183 -137 -188 -169 -2 -17 -10 -22 -33 -22 -27 0 -30 3 -30 30 0 24 5
31 25 33 14 2 41 20 60 39 19 19 57 51 83 71 47 36 48 37 28 51 -26 17 -26 31
-2 75 17 29 18 36 6 46 -22 18 -65 96 -65 117 0 11 -5 24 -12 31 -8 8 -3 18
20 40 l32 30 -23 14 c-66 43 -327 140 -474 177 -196 49 -561 88 -578 61z"/>
<path d="M3644 4895 c-10 -8 -14 -15 -8 -15 6 0 17 7 24 15 16 19 9 19 -16 0z"/>
<path d="M2290 4879 c-135 -37 -266 -131 -381 -275 -52 -66 -140 -196 -135
-201 1 -2 45 17 97 41 287 133 531 98 675 -96 51 -68 115 -197 133 -265 11
-40 14 -43 46 -43 19 0 35 -5 35 -11 0 -7 9 -9 23 -5 17 4 30 -1 46 -18 12
-13 21 -27 20 -32 -1 -5 0 -12 1 -16 1 -5 3 -11 4 -15 4 -17 39 -84 47 -88 4
-3 13 4 19 15 13 24 6 84 -17 138 -8 19 -12 46 -8 60 6 26 107 131 128 133 7
1 39 0 73 -1 136 -4 233 86 234 218 0 55 -21 122 -39 122 -14 0 -14 -2 5 -66
22 -76 1 -147 -57 -198 -59 -50 -159 -67 -188 -32 -8 9 5 11 52 8 52 -3 67 0
97 20 56 38 80 82 80 148 0 33 -6 64 -14 76 -18 24 -31 13 -17 -14 19 -36 13
-106 -11 -142 -40 -58 -142 -92 -176 -58 -21 21 -13 27 18 15 39 -15 105 7
132 43 24 34 32 88 18 125 l-12 30 -23 -27 c-13 -16 -29 -28 -35 -28 -7 0 -9
-8 -5 -19 3 -11 -1 -26 -10 -35 -19 -18 -45 -21 -45 -5 0 5 -4 7 -10 4 -9 -6
-14 11 -12 45 0 8 -14 32 -31 55 -53 68 -51 67 -82 35 -37 -39 -45 -30 -12 13
21 28 23 35 12 51 -8 10 -18 15 -23 12 -5 -3 -15 1 -22 9 -17 20 -30 10 -30
-24 0 -15 -5 -32 -11 -38 -15 -15 -3 -34 16 -26 12 4 13 0 7 -18 -13 -33 -37
-46 -56 -30 -15 13 -15 15 0 25 22 16 15 72 -8 70 -14 -1 -15 2 -8 16 15 28
12 38 -11 51 -19 9 -25 7 -45 -17 -16 -18 -24 -40 -24 -64 0 -20 -7 -45 -15
-56 -13 -16 -16 -17 -25 -4 -11 15 -7 101 5 120 4 6 25 20 47 31 45 23 38 39
-17 39 -17 0 -36 5 -43 12 -9 9 -19 7 -42 -10 -29 -22 -80 -30 -80 -13 0 15
107 102 127 104 22 1 93 -52 93 -70 0 -14 11 -22 52 -33 30 -9 30 -9 12 11
-38 42 -140 111 -218 148 -97 46 -228 78 -212 52 8 -12 -3 -41 -15 -41 -5 0
-9 11 -9 25 0 23 -4 25 -42 24 -24 0 -59 -5 -78 -10z m930 -461 c0 -55 -51
-108 -104 -108 -20 0 -36 5 -36 10 0 6 14 10 31 10 44 0 91 49 89 92 -3 45 -2
50 10 43 6 -3 10 -24 10 -47z m-44 -33 c-19 -29 -53 -45 -76 -37 -9 4 -2 9 19
14 24 7 36 18 44 38 7 19 15 26 21 20 5 -5 2 -19 -8 -35z m-116 -56 c0 -6 -4
-7 -10 -4 -5 3 -10 11 -10 16 0 6 5 7 10 4 6 -3 10 -11 10 -16z"/>
<path d="M3650 4860 c-22 -31 -16 -40 12 -17 18 14 31 47 18 47 -5 0 -18 -13
-30 -30z"/>
<path d="M3648 4802 c-27 -18 -68 -64 -68 -77 0 -4 24 -5 54 -3 48 4 55 2 60
-16 5 -19 6 -19 25 -2 18 17 19 17 26 -3 6 -21 25 -29 25 -12 0 5 3 17 6 26 5
12 2 16 -12 13 -16 -2 -19 3 -20 31 0 35 -16 52 -30 30 -5 -8 -12 -5 -23 10
-16 20 -17 20 -43 3z"/>
<path d="M3440 4800 c0 -5 5 -10 10 -10 6 0 10 5 10 10 0 6 -4 10 -10 10 -5 0
-10 -4 -10 -10z"/>
<path d="M3324 4769 c-35 -18 -47 -35 -92 -122 -29 -56 -52 -105 -52 -108 0
-3 44 38 98 90 55 55 93 99 87 103 -5 4 0 8 11 8 30 0 53 28 33 41 -21 13 -40
11 -85 -12z"/>
<path d="M3309 4625 c-84 -86 -92 -95 -64 -75 11 8 24 21 28 28 4 6 12 12 18
12 18 0 120 81 116 93 -8 25 -27 14 -98 -58z"/>
<path d="M3522 4680 c-14 -23 -8 -42 11 -34 11 4 18 54 7 54 -3 0 -11 -9 -18
-20z"/>
<path d="M3398 4618 c-16 -17 -28 -36 -28 -44 0 -24 18 -24 38 1 11 14 30 25
43 25 13 1 35 7 49 15 28 15 22 19 -40 29 -30 4 -39 1 -62 -26z"/>
<path d="M6993 4605 c-10 -11 -9 -20 5 -44 9 -17 25 -34 35 -37 12 -4 16 -12
12 -24 -3 -10 -1 -21 5 -25 5 -3 10 -1 10 4 0 18 24 12 38 -9 10 -17 10 -21
-2 -26 -8 -3 -20 -3 -26 1 -13 8 -26 -25 -13 -34 6 -3 12 -11 14 -17 2 -6 36
7 82 31 l79 42 -79 55 c-129 89 -146 98 -160 83z"/>
<path d="M9816 4586 c-4 -20 -16 -41 -31 -50 -15 -10 -25 -26 -25 -39 0 -17
-11 -29 -46 -46 -31 -15 -44 -25 -37 -32 7 -7 22 -3 46 11 20 12 42 20 49 17
8 -2 -3 -14 -24 -27 -44 -26 -48 -35 -13 -26 25 6 35 -7 14 -19 -16 -10 22
-34 54 -35 19 0 30 -7 37 -22 6 -16 9 -18 9 -7 1 9 -6 22 -14 29 -22 18 -18
33 5 20 23 -12 35 -50 26 -85 -8 -33 -86 -74 -86 -45 0 6 8 10 18 10 19 0 52
29 52 46 0 4 -7 -2 -16 -14 -8 -12 -22 -22 -31 -22 -19 0 -42 29 -43 54 0 14
-5 17 -21 13 -15 -4 -19 -2 -15 9 3 8 1 14 -4 14 -6 0 -10 -7 -10 -15 0 -8 -7
-15 -15 -15 -11 0 -12 5 -5 26 12 32 12 34 0 34 -5 0 -15 -20 -21 -45 -12 -47
-29 -70 -29 -38 0 10 5 35 11 56 15 55 4 69 -16 22 -11 -26 -15 -54 -12 -82
l5 -43 -36 0 c-42 0 -119 -47 -103 -63 6 -6 22 -4 44 7 44 20 83 21 91 0 5
-13 9 -14 20 -5 10 8 16 9 21 1 14 -22 86 -50 131 -50 57 0 111 28 144 77 19
28 25 49 25 93 0 44 -6 65 -25 93 -31 45 -87 77 -135 77 -29 0 -36 3 -33 17 4
23 34 28 64 12 21 -11 27 -10 45 9 11 12 26 22 34 22 30 0 24 20 -13 39 -21
11 -44 27 -51 35 -20 24 -28 20 -35 -18z m44 -151 c16 -8 41 -31 55 -50 53
-69 26 -178 -55 -220 -53 -28 -134 -14 -169 29 -18 21 -8 20 39 -4 47 -24 69
-25 115 -6 97 41 97 191 0 232 -19 8 -35 19 -35 24 0 14 16 12 50 -5z m29 -77
c18 -28 16 -91 -3 -120 -28 -42 -99 -62 -136 -38 -13 9 -13 10 0 11 8 1 27 0
41 -1 15 -1 39 10 58 25 43 37 44 91 1 132 -16 15 -30 32 -30 36 0 13 55 -23
69 -45z"/>
<path d="M5147 4545 c-16 -11 -16 -18 -5 -59 10 -39 10 -50 -6 -82 -12 -26
-14 -40 -7 -47 6 -6 11 -21 11 -34 0 -19 5 -23 34 -23 24 0 38 -7 48 -22 13
-20 18 -21 39 -11 13 6 30 13 37 15 10 3 15 27 17 83 2 44 10 101 18 128 15
46 14 47 -6 52 -57 12 -163 13 -180 0z"/>
<path d="M9223 4541 c-152 -39 -254 -204 -297 -481 -21 -137 -29 -237 -19
-243 12 -7 197 25 201 35 2 4 15 5 29 2 23 -6 24 -5 17 30 -5 29 -2 42 13 59
11 12 23 34 27 50 5 22 2 29 -16 37 l-23 9 23 7 c26 7 27 19 7 58 -8 15 -15
35 -15 43 0 7 -11 25 -25 39 l-25 25 32 39 c18 22 41 40 51 40 29 0 19 17 -14
24 -18 3 -38 1 -45 -5 -11 -9 -20 -7 -39 5 -14 9 -25 18 -25 21 0 9 100 105
109 105 14 0 14 -36 0 -62 -11 -21 -11 -21 25 1 20 13 47 21 63 19 25 -3 28
-7 26 -35 -1 -28 2 -34 24 -39 25 -7 25 -8 20 -70 -6 -58 2 -80 18 -55 3 5 19
12 35 16 17 4 30 10 31 13 0 4 2 18 4 32 1 14 -10 49 -26 79 -16 30 -28 55
-26 56 36 19 57 39 57 54 0 10 7 24 15 31 24 20 18 26 -37 44 -66 20 -153 28
-195 17z"/>
<path d="M5690 4500 c0 -16 5 -30 10 -30 6 0 10 14 10 30 0 17 -4 30 -10 30
-5 0 -10 -13 -10 -30z"/>
<path d="M7321 4469 l-33 -10 124 -122 c69 -67 153 -159 188 -204 l63 -83 69
0 c37 0 68 4 68 8 0 5 -11 40 -24 78 -54 158 -129 265 -220 311 -57 29 -174
40 -235 22z"/>
<path d="M5687 4444 c-4 -4 -7 -25 -7 -46 0 -36 1 -38 21 -28 15 9 19 19 17
42 -3 31 -17 45 -31 32z"/>
<path d="M5843 4333 c-42 -5 -42 -15 1 -36 31 -14 35 -14 40 -1 8 22 7 44 -1
42 -5 0 -23 -3 -40 -5z"/>
<path d="M5220 4211 c-11 -22 -28 -42 -39 -46 -26 -8 -71 -79 -69 -108 3 -29
-39 -84 -69 -93 -28 -8 -58 -48 -111 -151 -43 -84 -51 -118 -30 -125 20 -7 15
-116 -6 -161 -16 -33 -17 -40 -4 -55 8 -9 14 -29 13 -44 0 -16 2 -28 5 -28 3
0 82 35 175 79 210 97 472 202 672 271 151 52 153 53 146 79 -10 45 -31 78
-70 110 -58 48 -114 63 -251 68 -108 5 -125 3 -136 -12 -7 -10 -22 -16 -37
-13 -20 2 -24 9 -25 38 -1 20 -8 49 -16 65 -9 17 -21 54 -29 83 -11 44 -17 54
-38 58 -15 3 -34 9 -43 15 -14 7 -21 2 -38 -30z"/>
<path d="M6455 4233 c-29 -7 -39 -19 -21 -26 8 -3 25 3 38 13 23 19 20 22 -17
13z"/>
<path d="M9529 4164 c-18 -22 9 -39 32 -18 8 7 21 14 27 14 7 0 12 5 12 10 0
16 -56 11 -71 -6z"/>
<path d="M9453 4153 c-4 -9 -1 -19 5 -21 7 -2 9 -15 6 -32 -5 -24 -3 -28 12
-26 13 2 20 13 22 35 5 48 -30 83 -45 44z"/>
<path d="M7205 4024 c-11 -2 -63 -6 -116 -9 -90 -6 -96 -8 -92 -26 3 -11 28
-35 56 -54 41 -27 54 -32 74 -24 38 14 53 11 63 -15 11 -30 44 -36 182 -33
110 2 108 3 136 -38 17 -25 64 -53 79 -48 11 4 14 2 9 -5 -4 -7 -14 -12 -22
-12 -21 0 -17 -13 10 -39 15 -14 31 -21 43 -17 16 5 18 -1 19 -57 0 -66 14
-103 58 -150 14 -15 29 -40 32 -55 4 -15 11 -32 16 -38 5 -7 17 -36 28 -65 12
-37 24 -55 38 -57 26 -4 85 57 78 81 -7 29 14 65 45 76 79 27 149 122 149 202
0 24 5 39 15 43 8 3 15 14 15 25 0 23 24 34 68 32 37 -3 52 20 31 46 -11 13
-8 13 13 -2 16 -11 31 -31 34 -45 4 -14 20 -40 37 -57 17 -18 27 -33 21 -33
-5 0 -2 -4 6 -10 9 -6 15 -26 15 -56 1 -57 15 -65 56 -35 35 26 49 20 49 -19
0 -16 8 -48 17 -71 14 -36 15 -52 5 -108 -6 -36 -8 -68 -4 -71 23 -16 62 -74
62 -91 0 -38 39 -104 75 -128 41 -27 53 -22 37 14 -7 14 -12 39 -12 54 0 33
-30 75 -68 93 -18 9 -28 24 -33 47 -4 18 -13 37 -19 41 -8 5 -10 19 -7 36 23
114 21 108 36 91 7 -10 19 -17 25 -17 18 0 106 -86 106 -104 0 -26 22 -19 84
30 l59 46 -6 62 -6 61 75 -3 c65 -3 83 0 129 23 71 34 128 100 155 178 36 104
36 107 7 107 -22 0 -25 -5 -31 -54 -10 -74 -58 -152 -117 -189 -90 -55 -219
-46 -285 20 -46 45 -43 62 4 26 56 -44 94 -56 167 -51 52 3 73 10 107 34 51
35 86 94 94 158 6 38 4 46 -10 46 -11 0 -16 -9 -16 -32 0 -105 -117 -199 -226
-181 -50 8 -31 23 29 23 71 0 125 32 155 90 22 45 30 100 13 100 -33 0 -119
-26 -137 -42 -27 -24 -36 -23 -61 6 -37 43 -394 148 -668 197 -119 21 -337 49
-343 44 -2 -1 4 -43 12 -91 8 -49 17 -123 21 -164 3 -41 10 -79 16 -85 17 -17
10 -53 -11 -60 -30 -9 -53 13 -46 45 6 30 -54 156 -137 288 l-52 82 -210 -1
c-115 -1 -219 -3 -230 -5z m1825 -280 c-22 -58 -84 -104 -140 -104 -43 0 -37
16 9 24 44 7 96 46 107 79 6 21 25 40 31 33 2 -2 -1 -16 -7 -32z m-80 6 c-15
-29 -80 -53 -80 -31 0 5 13 12 29 16 16 3 32 13 35 21 3 8 10 14 16 14 7 0 7
-6 0 -20z m40 7 c0 -22 -28 -54 -59 -66 -34 -15 -83 -11 -89 6 -2 9 5 11 25 7
39 -8 81 11 95 41 12 27 28 34 28 12z m-192 -60 c12 -13 19 -27 15 -30 -7 -8
-53 31 -53 45 0 15 16 8 38 -15z m22 13 c0 -5 -2 -10 -4 -10 -3 0 -8 5 -11 10
-3 6 -1 10 4 10 6 0 11 -4 11 -10z m-30 -79 c0 -10 -11 -4 -30 14 -16 16 -30
35 -30 44 0 19 59 -39 60 -58z m-1113 -8 c-3 -10 -5 -4 -5 12 0 17 2 24 5 18
2 -7 2 -21 0 -30z m361 -61 c-27 -53 -110 -114 -129 -95 -8 8 -4 13 12 18 57
18 86 53 125 150 7 19 8 19 12 -4 2 -12 -7 -44 -20 -69z m-54 -3 c-33 -37 -74
-62 -74 -46 0 7 12 20 28 28 15 8 33 22 41 32 7 10 16 16 19 13 3 -3 -3 -15
-14 -27z"/>
<path d="M7689 4011 c7 -11 25 -41 41 -65 17 -24 50 -81 75 -127 l45 -84 -5
45 c-21 194 -32 240 -54 240 -10 0 -40 3 -66 7 -46 6 -47 6 -36 -16z"/>
<path d="M6849 3988 c-82 -11 -314 -50 -317 -53 -5 -5 50 -110 59 -113 15 -6
39 -59 39 -87 0 -15 11 -37 26 -52 48 -48 85 -120 96 -189 6 -36 17 -68 24
-71 8 -3 37 7 66 21 28 14 59 26 68 26 8 0 24 6 35 14 11 7 31 17 45 21 14 4
40 21 58 36 18 16 44 29 57 29 14 0 25 4 25 8 0 5 20 23 45 41 25 18 45 38 45
44 0 7 11 29 25 50 31 45 25 63 -32 92 -30 16 -39 26 -41 53 -2 17 -5 32 -7
32 -1 0 -19 -16 -39 -36 -30 -30 -41 -35 -73 -32 -33 3 -38 6 -38 28 0 30 -12
50 -28 50 -7 0 -6 -4 3 -10 12 -7 12 -12 3 -21 -10 -10 -14 -6 -19 19 -4 18
-16 39 -27 47 l-21 15 24 25 24 25 -35 -2 c-19 -2 -60 -6 -90 -10z"/>
<path d="M6290 3881 c-80 -21 -191 -50 -247 -66 l-102 -29 -6 -50 c-15 -117
-63 -236 -158 -395 -31 -52 -57 -104 -57 -116 0 -29 -24 -48 -50 -40 -30 9
-28 63 3 70 27 8 125 161 173 273 51 119 79 242 54 242 -14 0 -311 -107 -447
-161 -130 -52 -381 -162 -466 -206 l-51 -25 24 -22 c27 -24 50 -59 50 -77 0
-13 10 -22 79 -77 66 -51 91 -59 139 -40 27 10 50 12 84 6 40 -7 57 -4 108 17
32 14 65 25 72 25 7 0 21 -22 31 -50 24 -67 70 -102 143 -108 59 -5 61 -9 39
-52 -18 -35 -13 -52 35 -110 41 -50 65 -91 62 -103 -1 -4 3 -18 10 -30 7 -12
13 -35 15 -52 2 -16 6 -46 9 -66 4 -27 1 -45 -13 -65 -20 -32 -42 -105 -43
-147 0 -15 20 -67 45 -116 24 -49 42 -91 39 -94 -10 -10 28 -163 45 -182 25
-28 73 -139 70 -161 -7 -47 32 -91 69 -80 10 3 52 10 95 16 90 11 124 26 171
78 77 83 116 145 122 194 6 42 11 50 43 65 43 21 48 43 31 125 l-13 57 49 46
c27 25 57 45 66 45 9 0 29 16 43 35 25 31 26 40 22 108 -2 47 -10 83 -20 98
-10 13 -17 43 -17 69 0 25 -5 51 -11 57 -25 25 52 148 145 233 117 105 188
203 223 306 20 58 13 76 -24 64 -15 -5 -62 -16 -105 -25 l-76 -17 -23 23 c-13
13 -22 32 -21 42 4 22 -28 59 -75 88 -19 12 -34 31 -38 50 -4 16 -17 42 -30
57 -13 16 -25 48 -30 79 -4 35 -14 58 -31 74 -13 12 -24 28 -24 35 0 6 -12 37
-26 68 -17 37 -31 56 -42 55 -9 0 -82 -17 -162 -38z m-721 -715 c24 -48 81
-82 125 -74 18 4 26 1 26 -8 0 -22 -67 -17 -111 8 -45 25 -100 118 -70 118 5
0 19 -20 30 -44z m121 -16 c0 -5 -4 -10 -10 -10 -5 0 -10 5 -10 10 0 6 5 10
10 10 6 0 10 -4 10 -10z m4 -20 c14 0 26 -5 26 -10 0 -12 -62 -8 -93 5 -14 6
-16 10 -6 16 7 4 21 3 30 -2 10 -5 29 -9 43 -9z m781 -136 c15 -6 15 -8 0 -24
-9 -10 -18 -26 -19 -36 -2 -12 -12 -19 -29 -21 -25 -2 -27 1 -27 37 0 45 28
62 75 44z m-136 -181 c1 -18 5 -33 10 -33 11 0 36 -69 28 -77 -3 -3 -12 11
-20 30 -8 19 -20 38 -26 41 -6 4 -11 31 -10 59 0 38 3 47 9 32 5 -11 9 -35 9
-52z m156 -217 c3 -32 7 -62 10 -67 4 -5 2 -9 -4 -9 -17 0 -22 18 -26 87 -3
46 -1 63 6 56 5 -5 12 -36 14 -67z"/>
<path d="M2847 3780 c-38 -7 -54 -16 -45 -25 2 -3 19 0 36 6 26 9 38 7 79 -13
67 -33 104 -59 97 -69 -3 -5 15 -9 40 -9 25 0 47 4 50 8 5 9 -143 88 -189 100
-16 5 -47 5 -68 2z"/>
<path d="M580 3661 c0 -12 5 -21 10 -21 6 0 10 6 10 14 0 8 -4 18 -10 21 -5 3
-10 -3 -10 -14z"/>
<path d="M3192 3653 c-13 -3 -25 -10 -28 -17 -3 -8 -15 -11 -31 -8 -18 3 -24
1 -19 -7 5 -8 35 -11 92 -9 87 3 106 15 59 36 -26 12 -33 13 -73 5z"/>
<path d="M9156 3606 c-3 -11 -6 -31 -6 -43 0 -13 -4 -23 -9 -23 -13 0 0 -41
15 -47 7 -2 10 -11 7 -19 -4 -10 3 -14 21 -14 39 0 40 0 59 -17 9 -9 20 -13
25 -9 10 11 -38 48 -55 42 -21 -8 -28 42 -9 63 26 28 13 86 -19 87 -16 1 -25
-5 -29 -20z"/>
<path d="M3340 3610 c19 -13 30 -13 30 0 0 6 -10 10 -22 10 -19 0 -20 -2 -8
-10z"/>
<path d="M2760 3490 c0 -47 15 -52 51 -14 24 25 24 26 5 40 -37 27 -56 18 -56
-26z"/>
<path d="M8296 3435 c-3 -9 -6 -24 -5 -33 0 -9 5 -4 10 12 9 32 6 48 -5 21z"/>
<path d="M9167 3431 c3 -12 10 -21 15 -21 13 0 6 32 -9 37 -7 3 -9 -3 -6 -16z"/>
<path d="M9285 3393 c2 -16 4 -34 4 -40 1 -19 18 -15 23 5 6 22 -8 62 -21 62
-5 0 -8 -12 -6 -27z"/>
<path d="M9200 3370 c0 -11 4 -20 9 -20 13 0 32 26 24 33 -13 14 -33 6 -33
-13z"/>
<path d="M9091 3328 c-19 -21 -32 -41 -29 -43 7 -7 71 62 67 72 -2 5 -19 -9
-38 -29z"/>
<path d="M9227 3335 c-7 -16 8 -29 23 -20 10 6 2 35 -10 35 -4 0 -10 -7 -13
-15z"/>
<path d="M7905 3306 c-3 -9 -7 -23 -10 -31 -2 -8 -2 -29 2 -45 6 -33 32 -40
53 -15 10 13 9 23 -5 56 -21 46 -33 57 -40 35z"/>
<path d="M9310 3312 c0 -17 -52 -46 -59 -33 -5 7 -14 4 -29 -9 -29 -27 -28
-31 8 -23 23 4 30 2 30 -10 0 -18 39 -49 51 -41 5 2 6 11 2 19 -3 8 0 15 6 15
6 0 11 -6 11 -12 1 -9 4 -8 9 2 12 20 -1 92 -17 98 -6 2 -12 -1 -12 -6z"/>
<path d="M9019 3195 c-13 -19 -30 -35 -36 -35 -7 0 -25 -13 -40 -30 -14 -16
-32 -30 -40 -30 -7 0 -18 -12 -23 -26 -9 -23 -15 -26 -40 -20 -26 5 -30 2 -36
-22 -6 -31 -9 -37 -29 -72 -18 -31 -19 -87 -2 -120 7 -13 28 -35 46 -47 l34
-23 -29 0 c-16 0 -38 7 -48 15 -25 19 -60 19 -75 1 -10 -12 -7 -18 18 -30 16
-9 46 -16 66 -16 20 0 44 -4 53 -9 9 -5 43 -11 75 -13 43 -4 57 -1 57 9 0 7
-11 13 -24 13 -39 0 -39 26 -1 49 42 24 73 72 81 124 4 22 14 42 25 48 20 10
26 29 9 29 -14 0 -140 -83 -140 -92 0 -8 16 -12 34 -9 5 1 6 -5 2 -14 -3 -9
-6 -18 -6 -21 0 -2 -14 -11 -31 -20 -53 -27 -109 8 -109 70 0 14 5 28 10 31 6
4 10 -8 10 -28 0 -20 7 -40 17 -48 15 -13 15 -12 3 8 -12 18 -11 25 4 48 13
19 23 25 38 22 13 -4 33 3 52 17 17 13 57 38 89 56 31 17 57 35 57 38 0 4 -7
20 -15 36 -19 36 -13 56 22 78 l28 17 -32 13 c-18 7 -33 18 -33 25 0 23 -17
14 -41 -22z m-207 -247 c-7 -7 -12 -28 -12 -48 0 -41 27 -76 65 -86 31 -8 82
12 96 38 5 10 14 16 20 13 15 -10 -8 -43 -41 -60 -78 -41 -161 7 -162 94 0 43
21 86 36 71 7 -7 6 -14 -2 -22z"/>
<path d="M8380 3167 c0 -8 15 -27 33 -44 41 -39 77 -82 77 -94 0 -5 14 -28 30
-51 17 -22 30 -47 30 -54 0 -21 110 -124 131 -124 15 0 19 8 21 40 0 22 1 46
2 53 1 6 -9 16 -21 22 -13 5 -23 17 -23 27 0 23 -21 68 -32 68 -5 0 -21 14
-35 30 -13 17 -30 30 -36 30 -7 0 -35 22 -62 48 -51 49 -115 76 -115 49z"/>
<path d="M9376 3044 c-6 -15 9 -64 19 -64 4 0 3 5 0 10 -3 6 -2 10 4 10 13 0
10 34 -5 48 -9 8 -14 7 -18 -4z"/>
<path d="M9155 3027 c-8 -4 -15 -14 -15 -22 0 -7 -9 -33 -19 -58 -17 -40 -18
-47 -5 -66 9 -13 12 -30 8 -47 -5 -20 -3 -26 7 -22 8 3 15 22 17 46 4 48 13
53 32 17 14 -26 50 -35 50 -11 0 7 -10 26 -22 41 -18 23 -19 29 -7 35 8 5 23
16 34 24 19 16 19 16 -10 10 -16 -4 -36 -11 -43 -17 -10 -8 -16 -7 -23 4 -20
32 -6 44 58 47 88 4 102 27 17 27 -36 0 -71 -3 -79 -8z"/>
<path d="M3864 2983 c3 -10 10 -52 16 -93 16 -108 14 -106 58 -72 20 16 59 44
86 61 28 17 43 31 34 31 -9 0 -18 6 -21 13 -3 8 -22 22 -44 32 -21 9 -51 23
-67 31 -41 20 -69 18 -62 -3z"/>
<path d="M9497 2974 c-15 -15 -6 -31 26 -47 20 -10 26 -16 15 -16 -22 -1 -23
-8 -4 -27 8 -8 22 -11 30 -8 9 3 16 2 16 -4 0 -6 25 -18 55 -28 59 -18 95 -54
95 -93 0 -13 6 -21 18 -21 9 0 23 -9 30 -20 8 -14 23 -20 47 -20 30 0 34 2 26
18 -5 9 -17 37 -27 62 -26 61 -89 156 -112 169 -15 8 -26 4 -56 -21 -35 -29
-38 -29 -56 -13 -10 9 -20 29 -22 44 -3 22 -8 26 -38 29 -20 2 -39 0 -43 -4z"/>
<path d="M8706 2919 c12 -13 20 -16 22 -9 3 7 -2 16 -9 21 -25 16 -32 9 -13
-12z"/>
<path d="M4017 2842 c-53 -37 -97 -74 -97 -82 0 -19 -19 -40 -36 -40 -7 0 -20
7 -29 16 -41 42 -471 44 -619 4 -109 -29 -207 -81 -221 -117 -3 -8 4 -27 15
-43 11 -15 20 -37 20 -47 0 -23 29 -50 90 -85 82 -47 93 -67 93 -155 -1 -141
-2 -153 -17 -211 -8 -31 -17 -84 -21 -117 l-6 -61 49 -63 c27 -35 63 -70 81
-77 49 -21 33 -85 -19 -69 -19 6 -21 10 -24 42 -1 13 -77 116 -81 111 -16 -17
-57 -162 -56 -197 1 -24 -4 -60 -10 -78 -14 -43 -5 -71 16 -53 14 12 15 4 10
-71 -3 -46 -10 -85 -15 -87 -6 -2 -10 -11 -10 -19 0 -12 -3 -13 -14 -4 -10 9
-16 8 -26 -4 -10 -13 -8 -19 14 -36 29 -23 35 -42 9 -32 -13 5 -15 3 -8 -13
18 -44 17 -72 -3 -85 -11 -7 -18 -18 -15 -26 3 -7 9 -10 14 -7 5 3 13 -6 19
-20 5 -14 17 -26 25 -26 12 0 14 -4 5 -19 -15 -28 -13 -33 10 -26 15 5 18 3
14 -9 -8 -20 10 -21 26 -1 7 8 30 20 51 27 44 13 43 12 28 39 -11 21 8 92 22
83 4 -2 10 5 14 16 4 11 17 28 31 36 31 21 30 43 -1 73 -14 13 -25 27 -25 31
0 13 30 40 45 40 7 0 16 13 20 30 4 16 11 32 16 35 5 4 9 15 9 26 0 10 6 19
13 19 7 1 5 6 -5 14 -31 23 -22 44 18 43 39 -1 54 13 54 56 0 23 4 27 26 27
46 0 105 23 121 46 19 30 9 80 -24 116 -19 20 -23 31 -17 50 8 22 8 22 13 -7
5 -25 13 -31 54 -43 72 -20 85 -9 144 125 10 24 21 43 26 43 13 0 8 -17 -14
-44 -16 -20 -17 -25 -4 -20 9 4 25 25 37 48 11 22 29 52 39 65 13 16 19 41 19
75 1 42 5 54 24 68 47 34 119 68 146 68 27 0 70 36 70 59 0 7 5 22 12 34 27
48 39 95 44 170 4 61 10 82 27 101 44 48 94 122 101 148 9 38 -17 98 -42 98
-10 0 -39 15 -63 34 -24 18 -60 36 -80 39 -32 5 -46 -2 -132 -61z"/>
<path d="M9828 2822 c43 -82 48 -88 73 -84 22 3 36 -4 66 -37 21 -22 49 -42
63 -45 14 -2 33 -7 43 -11 12 -5 17 -2 17 8 0 9 -9 19 -20 22 -29 9 -75 74
-72 101 3 18 -3 25 -21 29 -13 4 -34 19 -45 34 -16 22 -115 71 -145 71 -3 0
15 -40 41 -88z"/>
<path d="M9390 2890 c0 -5 18 -10 41 -10 24 0 38 4 34 10 -3 6 -22 10 -41 10
-19 0 -34 -4 -34 -10z"/>
<path d="M10130 2895 c0 -6 6 -17 13 -24 10 -11 10 -14 0 -18 -7 -3 -13 -9
-13 -15 0 -7 5 -7 13 1 8 6 17 8 20 4 4 -3 7 -2 7 4 0 14 -39 61 -40 48z"/>
<path d="M8920 2866 c-6 -8 -21 -17 -33 -19 -21 -4 -21 -4 -1 -6 11 0 29 8 39
19 10 11 16 20 13 20 -3 0 -11 -6 -18 -14z"/>
<path d="M10030 2810 c0 -12 45 -24 65 -16 29 11 15 26 -25 26 -22 0 -40 -4
-40 -10z"/>
<path d="M10210 2815 c1 -17 29 -49 37 -41 4 3 -3 16 -15 29 -12 12 -22 17
-22 12z"/>
<path d="M10330 2741 c0 -10 31 -31 45 -31 11 0 -5 20 -26 30 -12 7 -19 7 -19
1z"/>
<path d="M9700 2730 c0 -5 5 -10 10 -10 6 0 10 5 10 10 0 6 -4 10 -10 10 -5 0
-10 -4 -10 -10z"/>
<path d="M10280 2731 c0 -10 30 -24 37 -17 3 2 -5 9 -16 16 -12 6 -21 7 -21 1z"/>
<path d="M9026 2711 c-4 -7 -5 -15 -2 -18 9 -9 19 4 14 18 -4 11 -6 11 -12 0z"/>
<path d="M9078 2712 c-30 -4 -39 -22 -10 -21 25 1 57 15 46 20 -5 3 -21 3 -36
1z"/>
<path d="M9140 2710 c0 -12 77 -14 83 -2 3 4 -15 8 -39 9 -24 1 -44 -2 -44 -7z"/>
<path d="M9319 2713 c-32 -5 -83 -53 -56 -53 9 0 33 12 54 26 44 29 50 35 37
33 -5 -1 -21 -4 -35 -6z"/>
<path d="M10400 2706 c0 -8 5 -18 10 -21 6 -3 10 1 10 9 0 8 -4 18 -10 21 -5
3 -10 -1 -10 -9z"/>
<path d="M10370 2681 c0 -5 7 -11 15 -15 8 -3 15 -1 15 3 0 5 -7 11 -15 15 -8
3 -15 1 -15 -3z"/>
<path d="M9130 2670 c19 -13 30 -13 30 0 0 6 -10 10 -22 10 -19 0 -20 -2 -8
-10z"/>
<path d="M10430 2640 c0 -5 5 -10 11 -10 5 0 7 5 4 10 -3 6 -8 10 -11 10 -2 0
-4 -4 -4 -10z"/>
<path d="M9826 2622 c-3 -5 -8 -43 -12 -83 -7 -92 -20 -129 -46 -129 -10 0
-21 6 -24 14 -3 8 -17 16 -32 19 -38 8 -82 44 -82 69 0 11 9 32 21 46 l21 27
-49 5 c-26 3 -58 11 -70 18 -32 17 -49 16 -33 -3 10 -13 9 -15 -11 -15 -25 0
-69 -52 -69 -81 0 -21 -40 -17 -52 4 -13 24 -47 21 -73 -7 -13 -14 -20 -27
-18 -30 3 -3 -6 -10 -21 -16 -22 -8 -26 -14 -21 -33 7 -22 7 -22 -9 -2 -13 17
-17 18 -26 5 -5 -8 -10 -22 -10 -30 -1 -31 -40 -60 -114 -84 -41 -14 -89 -35
-106 -47 -31 -24 -56 -85 -46 -117 7 -21 4 -38 -6 -35 -12 4 -10 -7 15 -61 35
-75 60 -181 54 -222 -6 -33 -4 -36 30 -50 34 -14 37 -14 72 10 29 21 49 26 94
26 31 0 57 4 57 10 0 15 47 42 88 51 20 4 57 13 82 19 36 9 54 8 95 -5 43 -13
54 -22 75 -60 14 -25 26 -45 28 -45 2 0 19 16 38 36 37 40 42 35 19 -20 -15
-36 -5 -51 14 -18 10 16 10 16 11 -2 0 -10 7 -24 16 -31 10 -6 22 -27 28 -46
6 -19 22 -38 36 -45 56 -27 170 -54 226 -54 199 0 334 222 245 403 -12 23 -52
75 -91 115 -38 40 -71 81 -73 90 -2 9 -7 -1 -11 -23 -4 -22 -18 -92 -31 -155
-13 -63 -22 -127 -19 -141 10 -45 -46 -66 -63 -24 -3 9 0 27 7 40 20 37 1 258
-41 484 -17 89 -25 115 -39 118 -10 3 -26 25 -35 51 -20 54 -30 68 -39 54z
m406 -627 c33 -62 30 -155 -7 -223 -44 -80 -127 -132 -213 -132 -34 0 -35 1
-16 15 10 8 29 15 42 15 37 0 111 41 137 74 63 83 70 158 25 254 -17 35 -30
69 -30 75 1 16 36 -28 62 -78z m-38 -47 c21 -80 -12 -173 -75 -215 -38 -25
-55 -28 -41 -7 4 5 20 18 35 28 44 27 71 97 63 163 -6 52 6 74 18 31z m-47
-109 c-8 -19 -24 -43 -37 -54 l-23 -20 23 45 c25 50 41 73 47 66 2 -2 -2 -19
-10 -37z"/>
<path d="M6940 2580 c0 -35 -70 -106 -111 -115 -39 -9 -54 -45 -40 -99 8 -33
6 -46 -10 -78 -32 -63 -5 -158 45 -158 43 0 63 30 95 145 16 61 33 130 37 155
4 25 11 48 16 51 12 8 0 73 -18 96 -11 15 -13 15 -14 3z"/>
<path d="M10965 2449 c-11 -17 0 -20 21 -4 17 13 17 14 2 15 -9 0 -20 -5 -23
-11z"/>
<path d="M10920 2401 c0 -11 26 -22 34 -14 3 3 3 10 0 14 -7 12 -34 11 -34 0z"/>
<path d="M9980 2333 c0 -10 5 -45 10 -78 6 -33 13 -98 16 -145 10 -129 15
-126 41 27 23 126 17 155 -38 194 -27 19 -29 19 -29 2z"/>
<path d="M10514 2299 c14 -21 69 -59 84 -59 10 1 -80 80 -91 80 -4 0 -1 -10 7
-21z"/>
<path d="M10809 1743 c33 -60 38 -92 19 -111 -9 -9 -7 -17 10 -35 14 -15 19
-30 15 -45 -7 -30 12 -28 34 4 10 15 28 38 41 51 25 27 41 83 24 83 -6 0 -14
-4 -17 -10 -11 -18 -47 -11 -52 10 -3 11 -12 20 -19 20 -8 0 -17 13 -20 30 -5
25 -40 60 -59 60 -4 0 7 -26 24 -57z"/>
<path d="M10757 1535 c-15 -19 -27 -38 -27 -43 0 -13 -40 -47 -77 -66 -33 -16
-69 -69 -58 -85 3 -5 24 -12 47 -16 46 -8 68 8 68 52 0 14 11 30 27 40 45 30
92 86 93 111 0 15 -4 21 -12 16 -6 -4 -16 0 -23 9 -10 14 -15 11 -38 -18z"/>
<path d="M9910 1554 c0 -5 6 -26 14 -48 15 -43 40 -63 59 -48 7 6 16 10 21 9
12 -3 25 44 17 63 -3 8 -19 16 -36 16 -16 1 -40 5 -52 9 -13 4 -23 3 -23 -1z"/>
<path d="M3116 1458 c-19 -26 -8 -49 11 -23 12 18 18 45 9 45 -3 0 -12 -10
-20 -22z"/>
<path d="M3094 1389 c-19 -21 -19 -21 6 -18 14 2 26 12 28 22 5 23 -11 22 -34
-4z"/>
<path d="M3081 1244 c0 -11 3 -14 6 -6 3 7 2 16 -1 19 -3 4 -6 -2 -5 -13z"/>
<path d="M3090 1206 c0 -9 5 -16 10 -16 6 0 10 4 10 9 0 6 -4 13 -10 16 -5 3
-10 -1 -10 -9z"/>
<path d="M3576 1104 c-3 -9 -6 -18 -6 -20 0 -8 25 -4 40 6 13 9 13 11 0 20
-21 13 -27 12 -34 -6z"/>
<path d="M3534 1095 c-17 -13 -17 -14 -2 -15 9 0 20 5 23 11 11 17 0 20 -21 4z"/>
<path d="M3253 1049 c-26 -10 -26 -9 -13 -43 9 -23 7 -26 -15 -26 -28 0 -45
-19 -18 -21 10 -1 21 -1 25 0 4 0 34 -3 66 -7 33 -5 68 -5 78 -1 17 6 17 8 -6
17 -25 10 -59 41 -83 74 -9 12 -18 14 -34 7z"/>
<path d="M3170 1000 c0 -5 4 -10 9 -10 6 0 13 5 16 10 3 6 -1 10 -9 10 -9 0
-16 -4 -16 -10z"/>
<path d="M4250 986 c0 -2 7 -7 16 -10 8 -3 12 -2 9 4 -6 10 -25 14 -25 6z"/>
<path d="M3250 931 c0 -11 39 -25 47 -18 3 3 2 10 -2 16 -8 13 -45 15 -45 2z"/>
</g>
</svg>
